<svg width="1440" height="1503" viewBox="0 0 1440 1503" fill="none" xmlns="http://www.w3.org/2000/svg">
<rect width="1440" height="1503" fill="#938585"/>
<path d="M1295.83 355.491C1296.63 356.682 1298.37 356.682 1299.17 355.491L1305.4 346.106C1306.28 344.777 1305.33 343 1303.73 343H1291.27C1289.67 343 1288.72 344.777 1289.6 346.106L1295.83 355.491Z" fill="#D4D4D4"/>
<rect width="1440" height="1503" fill="url(#paint0_linear_647_2)"/>
<path d="M1106.89 1464.5C1105.45 1466.98 1102.27 1467.83 1099.78 1466.4C1097.29 1464.97 1096.44 1461.79 1097.87 1459.31C1099.31 1456.83 1102.49 1455.98 1104.98 1457.41C1107.47 1458.85 1108.33 1462.02 1106.89 1464.5ZM1113.57 1442.6C1102.87 1436.44 1089.18 1440.1 1083 1450.76C1076.82 1461.42 1080.49 1475.06 1091.19 1481.22C1101.89 1487.38 1115.58 1483.72 1121.76 1473.06C1127.94 1462.39 1124.27 1448.76 1113.57 1442.6ZM1104.19 1424.38C1108.84 1425.96 1117.77 1425.33 1121.34 1425.05C1153.37 1422.57 1188.69 1404.53 1208.41 1370.5C1228.13 1336.47 1255.78 1323.84 1262.15 1320.49C1268.52 1317.14 1271.49 1313.73 1265.24 1308.52C1232.16 1280.94 1156.17 1279.32 1117.22 1342.08C1103.27 1364.55 1095.91 1393.63 1101.49 1420.02C1102.1 1422.93 1103.5 1424.15 1104.19 1424.38ZM1208.41 1496.12C1188.69 1462.08 1191.54 1431.91 1191.82 1424.74C1192.09 1417.56 1190.61 1413.3 1182.96 1416.09C1142.45 1430.84 1103.05 1495.61 1138.11 1560.6C1150.67 1583.88 1172.27 1604.76 1197.98 1613.15C1200.83 1614.08 1202.58 1613.48 1203.14 1613C1206.84 1609.78 1210.76 1601.75 1212.3 1598.54C1226.14 1569.64 1228.13 1530.15 1208.41 1496.12ZM1530.97 1442.24C1526.32 1440.66 1517.39 1441.29 1513.82 1441.57C1481.79 1444.05 1446.47 1462.09 1426.75 1496.12C1407.03 1530.15 1379.38 1542.78 1373.01 1546.13C1366.64 1549.48 1363.67 1552.89 1369.92 1558.1C1403 1585.68 1478.99 1587.3 1517.94 1524.54C1531.89 1502.07 1539.25 1472.99 1533.67 1446.6C1533.07 1443.69 1531.67 1442.47 1530.97 1442.24ZM1537.3 1407.3C1535.86 1409.78 1532.68 1410.63 1530.19 1409.2C1527.7 1407.77 1526.85 1404.59 1528.28 1402.11C1529.72 1399.63 1532.9 1398.78 1535.39 1400.21C1537.88 1401.65 1538.73 1404.82 1537.3 1407.3ZM1543.98 1385.4C1533.28 1379.24 1519.59 1382.9 1513.41 1393.56C1507.23 1404.22 1510.9 1417.86 1521.6 1424.02C1532.3 1430.18 1545.99 1426.52 1552.17 1415.86C1558.34 1405.19 1554.68 1391.56 1543.98 1385.4ZM1237.44 1637.81C1234.95 1639.24 1231.77 1638.39 1230.33 1635.91C1228.89 1633.43 1229.75 1630.26 1232.24 1628.82C1234.73 1627.39 1237.92 1628.24 1239.35 1630.72C1240.78 1633.2 1239.93 1636.38 1237.44 1637.81ZM1223.65 1614.01C1212.95 1620.17 1209.28 1633.8 1215.46 1644.47C1221.64 1655.13 1235.32 1658.79 1246.03 1652.63C1256.73 1646.47 1260.4 1632.84 1254.22 1622.17C1248.04 1611.5 1234.35 1607.85 1223.65 1614.01ZM1185.12 1256.71C1188 1256.71 1190.33 1259.03 1190.33 1261.9C1190.33 1264.77 1188 1267.09 1185.12 1267.09C1182.24 1267.09 1179.91 1264.77 1179.91 1261.9C1179.92 1259.04 1182.25 1256.71 1185.12 1256.71ZM1185.12 1284.2C1197.48 1284.2 1207.5 1274.22 1207.5 1261.9C1207.5 1249.59 1197.48 1239.6 1185.12 1239.6C1172.76 1239.6 1162.74 1249.58 1162.74 1261.9C1162.75 1274.21 1172.77 1284.2 1185.12 1284.2ZM1450.04 1609.91C1447.16 1609.91 1444.83 1607.59 1444.83 1604.72C1444.83 1601.85 1447.16 1599.53 1450.04 1599.53C1452.92 1599.53 1455.25 1601.85 1455.25 1604.72C1455.25 1607.58 1452.92 1609.91 1450.04 1609.91ZM1450.04 1582.42C1437.68 1582.42 1427.66 1592.4 1427.66 1604.72C1427.66 1617.03 1437.68 1627.02 1450.04 1627.02C1462.4 1627.02 1472.42 1617.04 1472.42 1604.72C1472.42 1592.4 1462.4 1582.42 1450.04 1582.42ZM1408.53 1606.78C1390.36 1580.38 1357.02 1558.92 1317.58 1558.92C1278.14 1558.92 1253.34 1541.37 1247.24 1537.55C1241.14 1533.73 1236.69 1532.88 1235.29 1540.87C1227.86 1583.2 1264.45 1649.59 1338.47 1651.83C1364.98 1652.63 1393.93 1644.44 1414.07 1626.44C1416.3 1624.45 1416.66 1622.63 1416.51 1621.91C1415.57 1617.11 1410.55 1609.72 1408.53 1606.78ZM1375.98 1474.43L1325.67 1421.91V1402.31C1327.93 1395.66 1341.31 1369.29 1370.68 1369.29C1382.06 1369.29 1391.54 1373.95 1398.82 1383.14C1405.82 1391.99 1409.85 1404.1 1409.85 1416.38C1409.85 1438.27 1393.97 1457.73 1375.98 1474.43ZM1325.66 1518.51V1446.45L1362.46 1486.39C1351.69 1495.71 1334.48 1511 1325.66 1518.51ZM1309.5 1421.91L1259.19 1474.43C1241.2 1457.73 1225.32 1438.27 1225.32 1416.37C1225.32 1404.09 1229.35 1391.98 1236.35 1383.13C1243.63 1373.94 1253.11 1369.28 1264.49 1369.28C1293.86 1369.28 1306.84 1395.65 1309.5 1402.3V1421.91ZM1309.5 1518.51C1300.69 1510.99 1283.47 1495.71 1272.7 1486.39L1309.5 1446.45V1518.51ZM1370.68 1352.86C1335.71 1352.86 1321.29 1375.77 1317.59 1383.86C1313.88 1375.76 1299.47 1352.86 1264.5 1352.86C1229.18 1352.86 1208.82 1385.26 1208.82 1416.37C1208.82 1447.46 1231.98 1473.01 1257.91 1495.34C1283.85 1517.69 1314.9 1543.97 1314.9 1543.97H1317.59H1320.28C1320.28 1543.97 1351.33 1517.69 1377.27 1495.34C1403.19 1473.01 1426.36 1447.46 1426.36 1416.37C1426.36 1385.26 1405.99 1352.86 1370.68 1352.86ZM1426.76 1370.5C1446.48 1404.53 1443.63 1434.71 1443.35 1441.88C1443.08 1449.06 1444.56 1453.32 1452.21 1450.53C1492.72 1435.78 1532.12 1371.01 1497.06 1306.02C1484.5 1282.74 1462.9 1261.86 1437.19 1253.47C1434.34 1252.54 1432.59 1253.14 1432.03 1253.62C1428.33 1256.84 1424.41 1264.87 1422.87 1268.08C1409.02 1296.98 1407.04 1336.47 1426.76 1370.5ZM1397.73 1228.81C1400.22 1227.38 1403.41 1228.23 1404.84 1230.71C1406.28 1233.19 1405.42 1236.37 1402.93 1237.8C1400.44 1239.23 1397.25 1238.38 1395.82 1235.9C1394.38 1233.41 1395.24 1230.24 1397.73 1228.81ZM1411.52 1252.61C1422.22 1246.45 1425.89 1232.82 1419.71 1222.15C1413.53 1211.48 1399.85 1207.83 1389.14 1213.99C1378.44 1220.15 1374.77 1233.78 1380.95 1244.45C1387.13 1255.11 1400.81 1258.77 1411.52 1252.61ZM1226.64 1259.84C1244.81 1286.24 1278.14 1307.7 1317.59 1307.7C1357.03 1307.7 1381.83 1325.25 1387.93 1329.07C1394.03 1332.89 1398.48 1333.74 1399.88 1325.75C1407.32 1283.42 1370.72 1217.03 1296.7 1214.79C1270.19 1213.99 1241.24 1222.18 1221.1 1240.18C1218.87 1242.17 1218.51 1243.99 1218.65 1244.71C1219.6 1249.51 1224.62 1256.9 1226.64 1259.84Z" fill="white" fill-opacity="0.4"/>
<defs>
<linearGradient id="paint0_linear_647_2" x1="720" y1="0" x2="720" y2="1503" gradientUnits="userSpaceOnUse">
<stop stop-color="white"/>
<stop offset="1" stop-color="#E8F0CC"/>
</linearGradient>
</defs>
</svg>
