<svg width="202" height="19" viewBox="0 0 202 19" fill="none" xmlns="http://www.w3.org/2000/svg">
<rect x="0.5" y="8.9043" width="80" height="0.970588" fill="#E7E7E7"/>
<path d="M101.012 9.02601C101.012 9.94647 100.846 10.7419 100.514 11.4124C100.181 12.0828 99.7253 12.5999 99.1458 12.9635C98.5662 13.3271 97.9043 13.509 97.16 13.509C96.4157 13.509 95.7537 13.3271 95.1742 12.9635C94.5946 12.5999 94.1387 12.0828 93.8063 11.4124C93.4739 10.7419 93.3077 9.94647 93.3077 9.02601C93.3077 8.10556 93.4739 7.3101 93.8063 6.63965C94.1387 5.96919 94.5946 5.45215 95.1742 5.08851C95.7537 4.72488 96.4157 4.54306 97.16 4.54306C97.9043 4.54306 98.5662 4.72488 99.1458 5.08851C99.7253 5.45215 100.181 5.96919 100.514 6.63965C100.846 7.3101 101.012 8.10556 101.012 9.02601ZM99.9895 9.02601C99.9895 8.27033 99.8631 7.63255 99.6103 7.11266C99.3603 6.59277 99.0208 6.19931 98.5918 5.93226C98.1657 5.66522 97.6884 5.53169 97.16 5.53169C96.6316 5.53169 96.1529 5.66522 95.7239 5.93226C95.2978 6.19931 94.9583 6.59277 94.7054 7.11266C94.4554 7.63255 94.3304 8.27033 94.3304 9.02601C94.3304 9.78169 94.4554 10.4195 94.7054 10.9394C94.9583 11.4593 95.2978 11.8527 95.7239 12.1198C96.1529 12.3868 96.6316 12.5203 97.16 12.5203C97.6884 12.5203 98.1657 12.3868 98.5918 12.1198C99.0208 11.8527 99.3603 11.4593 99.6103 10.9394C99.8631 10.4195 99.9895 9.78169 99.9895 9.02601ZM102.789 13.3896V4.66238H105.738C106.42 4.66238 106.98 4.77885 107.417 5.01181C107.855 5.24192 108.178 5.55868 108.389 5.96209C108.599 6.3655 108.704 6.82431 108.704 7.33851C108.704 7.85272 108.599 8.30868 108.389 8.70641C108.178 9.10414 107.856 9.41664 107.421 9.64391C106.987 9.86834 106.431 9.98056 105.755 9.98056H103.369V9.02601H105.721C106.187 9.02601 106.562 8.95783 106.846 8.82147C107.133 8.6851 107.34 8.49192 107.468 8.24192C107.599 7.98908 107.664 7.68794 107.664 7.33851C107.664 6.98908 107.599 6.68368 107.468 6.42232C107.338 6.16096 107.129 5.95925 106.842 5.81721C106.555 5.67232 106.176 5.59988 105.704 5.59988H103.846V13.3896H102.789ZM106.897 9.46919L109.045 13.3896H107.818L105.704 9.46919H106.897Z" fill="#6D6D6D"/>
<rect x="121.5" y="8.9043" width="80" height="0.970588" fill="#E7E7E7"/>
</svg>
