<svg width="50" height="50" viewBox="0 0 50 50" fill="none" xmlns="http://www.w3.org/2000/svg">
<g clip-path="url(#clip0_761_3260)">
<path d="M34.5623 18.75H31.2498V8.33333C31.2498 7.1875 30.3123 6.25 29.1665 6.25H20.8332C19.6873 6.25 18.7498 7.1875 18.7498 8.33333V18.75H15.4373C13.5832 18.75 12.6457 21 13.9582 22.3125L23.5207 31.875C24.3332 32.6875 25.6457 32.6875 26.4582 31.875L36.0207 22.3125C37.3332 21 36.4165 18.75 34.5623 18.75ZM10.4165 39.5833C10.4165 40.7292 11.354 41.6667 12.4998 41.6667H37.4998C38.6457 41.6667 39.5832 40.7292 39.5832 39.5833C39.5832 38.4375 38.6457 37.5 37.4998 37.5H12.4998C11.354 37.5 10.4165 38.4375 10.4165 39.5833Z" fill="white"/>
</g>
<defs>
<clipPath id="clip0_761_3260">
<rect width="50" height="50" fill="white"/>
</clipPath>
</defs>
</svg>
