<svg width="30" height="36" viewBox="0 0 30 36" fill="none" xmlns="http://www.w3.org/2000/svg">
<path d="M20.3333 12.5V13H20.8333H24.1458C25.5462 13 26.254 14.7055 25.2506 15.7089L15.6881 25.2714C15.0709 25.8887 14.075 25.8887 13.4577 25.2714L3.89522 15.7089C2.89934 14.7131 3.6098 13 5.02083 13H8.33333H8.83333V12.5V2.08333C8.83333 1.21364 9.54698 0.5 10.4167 0.5H18.75C19.6197 0.5 20.3333 1.21364 20.3333 2.08333V12.5ZM2.08333 34.9167C1.21364 34.9167 0.5 34.203 0.5 33.3333C0.5 32.4636 1.21364 31.75 2.08333 31.75H27.0833C27.953 31.75 28.6667 32.4636 28.6667 33.3333C28.6667 34.203 27.953 34.9167 27.0833 34.9167H2.08333Z" stroke="white"/>
</svg>
