<svg width="40" height="40" viewBox="0 0 40 40" fill="none" xmlns="http://www.w3.org/2000/svg">
<path fill-rule="evenodd" clip-rule="evenodd" d="M19.4445 1.1082C19.182 1.18241 18.7953 1.42585 18.5851 1.64929C18.2397 2.01663 18.198 2.21085 18.15 3.67741L18.0969 5.29929L17.3873 6.00898L16.6776 6.71866H9.53374H2.38999L1.85906 7.07601C0.862024 7.74695 0.761711 9.17413 1.65281 10.0115C2.00077 10.3385 2.23702 10.398 3.37187 10.4457C4.23609 10.4818 4.68749 10.563 4.68749 10.6824C4.68749 10.7824 3.84906 13.3771 2.82437 16.4485L0.961243 22.033L1.10421 23.0424C1.6914 27.1885 5.17796 30.0977 8.69015 29.3721C11.1008 28.874 12.9344 27.1616 13.8373 24.5652C14.463 22.7662 14.4047 22.2482 12.9072 16.2924C12.1676 13.351 11.5625 10.8373 11.5625 10.7065C11.5625 10.5034 11.9331 10.4687 14.1075 10.4687H16.6523L17.3937 11.2213L18.1351 11.974L18.0909 20.7135L18.0469 29.453L17.6784 30.2677C17.2636 31.1851 16.0756 32.3846 15.192 32.778C14.7344 32.9818 13.9053 33.0562 11.3281 33.1246C7.76718 33.2193 7.53499 33.2724 7.02343 34.1115C6.77874 34.5129 6.71984 34.8998 6.71937 36.1096C6.71874 37.4137 6.76546 37.6794 7.07577 38.1408C7.27968 38.4443 7.66484 38.7518 7.97421 38.8583C8.74952 39.1254 31.2505 39.1254 32.0258 38.8583C32.3351 38.7518 32.7203 38.4443 32.9242 38.1408C33.2345 37.6794 33.2812 37.4137 33.2806 36.1096C33.2802 34.8998 33.2212 34.5129 32.9766 34.1115C32.465 33.2724 32.2328 33.2193 28.6719 33.1246C26.0947 33.0562 25.2656 32.9818 24.808 32.778C23.9244 32.3846 22.7364 31.1851 22.3216 30.2677L21.9531 29.453L21.9091 20.7135L21.8648 11.974L22.6062 11.2213L23.3477 10.4687H26.4272H29.5069L27.632 16.0546C26.0494 20.7694 25.7597 21.7804 25.7739 22.5377C25.8203 25.0196 27.4834 27.7132 29.6428 28.8043C32.5378 30.2669 35.7825 29.2724 37.685 26.3393C38.0155 25.8299 38.4236 24.9669 38.592 24.4216C39.1376 22.6555 39.0744 22.1382 37.5994 16.2924C36.8572 13.351 36.25 10.846 36.25 10.7259C36.25 10.5738 36.5117 10.4857 37.1106 10.436C37.7312 10.3844 38.0798 10.2626 38.3608 9.99851C39.2386 9.17382 39.1309 7.7421 38.1409 7.07601L37.61 6.71866H30.4662H23.3223L22.5987 5.99491L21.875 5.27132L21.8744 3.84648C21.8739 2.71148 21.812 2.32054 21.5703 1.92398C21.1092 1.16773 20.3139 0.862571 19.4445 1.1082ZM7.89406 13.1416C7.76171 13.4923 4.99999 21.786 4.99999 21.8326C4.99999 21.8559 6.19999 21.8749 7.66671 21.8749C10.1337 21.8749 10.3273 21.8544 10.2514 21.6015C10.2061 21.451 9.70468 19.466 9.13687 17.1902C8.56906 14.9144 8.07562 13.0235 8.04031 12.9882C8.00499 12.9529 7.93921 13.0219 7.89406 13.1416ZM31.2008 17.4123L29.7122 21.8749H32.3666C34.8219 21.8749 35.0148 21.8544 34.9389 21.6015C34.8936 21.451 34.3922 19.466 33.8244 17.1902C33.2566 14.9144 32.7689 13.0293 32.7406 13.001C32.7125 12.9727 32.0195 14.9579 31.2008 17.4123Z" fill="#128940"/>
</svg>
