<svg width="40" height="40" viewBox="0 0 40 40" fill="none" xmlns="http://www.w3.org/2000/svg">
<path fill-rule="evenodd" clip-rule="evenodd" d="M9.45316 0.263284C8.8516 0.403702 7.62519 0.899936 6.72769 1.36588C5.31769 2.0981 4.91285 2.40973 3.74863 3.65893C1.06722 6.53625 -0.153245 9.91466 0.0520679 13.8912C0.187537 16.5177 0.846287 18.6375 2.18051 20.7421C3.02394 22.0725 19.1485 39.8074 19.6332 39.9376C19.8349 39.992 20.1674 39.9913 20.3721 39.9363C20.9547 39.7796 37.053 21.9886 37.9627 20.4959C38.8289 19.0745 39.3971 17.6333 39.7783 15.8901C40.1035 14.4029 40.2591 11.3808 40.0104 11.3808C39.9188 11.3808 39.8438 11.1848 39.8438 10.9453C39.8438 10.2082 38.9366 7.56203 38.2518 6.30111C37.8555 5.5719 37.0663 4.53558 36.2305 3.64722C35.0552 2.39818 34.6289 2.07015 33.2499 1.35416C31.1532 0.265459 29.6058 -0.0774694 27.351 0.0465473C24.8918 0.181777 22.8383 0.965208 20.9413 2.4919C20.4713 2.87031 20.0299 3.17994 19.9605 3.17994C19.8913 3.17994 19.4775 2.87768 19.0411 2.50814C18.0918 1.70429 16.3688 0.791485 15.0782 0.408556C13.7568 0.0164218 10.8333 -0.0590594 9.45316 0.263284ZM27.5391 3.03031C27.2727 3.32588 27.2938 3.7719 27.5893 4.08856C27.8872 4.40755 29.5299 4.45341 29.8125 4.15065C30.0675 3.87751 30.0485 3.43132 29.7714 3.18512C29.428 2.87969 27.778 2.76538 27.5391 3.03031ZM32.8438 5.05441C32.5043 5.41809 32.6457 5.76153 33.5613 6.79818C34.5539 7.92186 35.3035 9.29692 35.6883 10.6999C35.9722 11.7352 36.0191 14.1553 35.7736 15.1021C35.5564 15.9403 35.7955 16.4419 36.3777 16.3699C36.9111 16.304 37.1727 15.5215 37.2907 13.6402C37.4616 10.916 36.4446 7.96437 34.6383 5.94211C33.6749 4.86345 33.2283 4.64253 32.8438 5.05441ZM0.0570679 13.1381C0.0575366 14.0586 0.0837866 14.4137 0.115349 13.9274C0.147068 13.4412 0.146755 12.6881 0.114724 12.2537C0.0825366 11.8196 0.0567554 12.2176 0.0570679 13.1381Z" fill="#128940"/>
</svg>
