<svg width="40" height="40" viewBox="0 0 40 40" fill="none" xmlns="http://www.w3.org/2000/svg">
<path fill-rule="evenodd" clip-rule="evenodd" d="M3.54717 2.65624C3.50108 2.78515 3.36967 3.20702 3.25514 3.59374C3.05686 4.26327 3.00327 4.31109 2.13624 4.59265C1.1578 4.9103 1.17998 5.06421 2.22936 5.2414C2.88749 5.35265 3.18624 5.70093 3.36233 6.56249C3.54702 7.46515 3.63874 7.45077 3.90514 6.47655L4.15936 5.54687L5.14092 5.22702L6.12264 4.90718L5.14171 4.60202L4.16077 4.29687L3.89577 3.35937C3.74905 2.84031 3.59342 2.5264 3.54717 2.65624ZM9.93077 4.45312C9.78452 4.96874 9.61171 5.56499 9.54702 5.77812C9.4478 6.10437 9.23999 6.21484 8.23014 6.47796C7.57077 6.64984 7.03124 6.83093 7.03124 6.88062C7.03124 6.93015 7.57155 7.11093 8.23171 7.28233C9.23843 7.54343 9.45108 7.65562 9.54858 7.97655C9.61249 8.18718 9.78546 8.78124 9.93311 9.29687L10.2014 10.2344L10.5303 9.06249C10.7114 8.41796 10.9126 7.80859 10.9776 7.70843C11.0428 7.60812 11.6195 7.40265 12.2594 7.25187C12.8992 7.10093 13.3916 6.92702 13.3534 6.8653C13.3153 6.80359 12.7906 6.63218 12.1875 6.48437C11.5844 6.33655 11.0389 6.13593 10.9751 6.03843C10.9114 5.94093 10.7103 5.33343 10.528 4.68843L10.1967 3.51562L9.93077 4.45312ZM18.3594 4.22734C17.6719 4.28468 16.6875 4.41984 16.1719 4.52781C15.0644 4.75937 12.6562 5.60671 12.6562 5.76468C12.6562 5.8253 13.1876 6.00718 13.837 6.1689C15.2073 6.51015 15.6412 6.75827 15.3626 7.04093C15.2612 7.14374 14.3508 7.45108 13.3394 7.72374L11.5006 8.21952L11.3134 8.95359C11.2103 9.35718 11.1516 9.68749 11.1828 9.68749C11.2139 9.68749 11.6658 9.41187 12.1869 9.07515C14.098 7.83999 17.5044 6.73734 18.0389 7.18093C18.2506 7.35655 18.2811 8.18421 18.28 13.73L18.2789 20.0781L13.9045 24.6875C11.4986 27.2226 9.3914 29.3595 9.22186 29.4362C8.81905 29.6184 8.54077 29.3831 7.79046 28.2256C6.47389 26.1945 5.78124 23.6314 5.78124 20.7911C5.78124 17.6106 6.69858 14.8837 8.63171 12.3184L9.59343 11.0422L9.25014 9.71405C9.06124 8.98358 8.8653 8.34483 8.81468 8.29452C8.67311 8.15421 6.68999 10.2981 5.94061 11.4016C4.96624 12.8366 3.94795 15.0872 3.4842 16.8317C3.13139 18.1587 3.07749 18.6773 3.07389 20.7812C3.06795 24.2434 3.73108 26.74 5.40749 29.5683C6.46046 31.3447 9.2803 34.1645 11.0567 35.2175C13.885 36.8939 16.3816 37.557 19.8437 37.5511C21.9598 37.5475 22.463 37.4947 23.8281 37.1322C25.4511 36.7014 28.8586 35.1498 29.0019 34.7762C29.0467 34.6595 28.9525 34.1197 28.7925 33.5765C28.453 32.4234 28.0453 32.1805 27.3067 32.6912C26.5737 33.1983 24.3414 34.1819 23.3369 34.4405C22.0295 34.7769 21.4564 34.7605 21.2531 34.3809C21.1462 34.1811 21.1036 32.4276 21.1305 29.344C21.1698 24.8473 21.1864 24.6108 21.4672 24.5567C21.6787 24.5161 22.5695 25.3062 24.6106 27.345C27.3656 30.097 27.4752 30.1865 27.9575 30.0806C28.4761 29.9667 28.7037 29.6078 28.8514 28.6719C28.9195 28.239 28.6252 27.8883 25.0095 24.0947L21.0937 19.9861V13.8559C21.0937 6.75515 21.0636 6.92093 22.3228 7.10984C23.4959 7.28577 25.5178 8.02921 26.8262 8.76593C28.4081 9.65655 30.7753 11.977 31.7058 13.5494C34.3952 18.0937 34.4236 23.4539 31.7827 28.0201C30.862 29.612 30.8972 29.8448 32.1094 30.1825C32.625 30.3262 33.1573 30.4494 33.2925 30.4562C33.5998 30.4719 34.7034 28.5715 35.3466 26.919C36.697 23.4486 36.7931 19.1334 35.5995 15.5469C33.1942 8.31905 25.9917 3.58999 18.3594 4.22734ZM14.4126 27.853C11.7623 30.5053 11.0937 31.258 11.0937 31.5886C11.0937 32.7031 17.1464 35.2786 18.0342 34.5417C18.2498 34.3628 18.2812 33.7125 18.2812 29.434C18.2812 24.8597 18.2628 24.5312 18.0064 24.5312C17.8553 24.5312 16.2381 26.0259 14.4126 27.853ZM29.6183 28.8281C29.472 29.3437 29.2997 29.9414 29.2355 30.1562C29.1362 30.4876 28.9367 30.5934 27.9187 30.8544C27.2587 31.0236 26.7187 31.2094 26.7187 31.2672C26.7187 31.325 26.9122 31.4181 27.1484 31.474C27.3847 31.53 27.9397 31.678 28.3814 31.803L29.1848 32.0301L29.4561 33.1634C29.6053 33.7869 29.7752 34.35 29.8334 34.415C29.8916 34.4798 30.0687 34.0228 30.2272 33.3994C30.3855 32.7758 30.5734 32.1898 30.6448 32.0973C30.7162 32.0047 31.3036 31.7972 31.9498 31.6362C32.5961 31.4753 33.0722 31.2969 33.0078 31.2397C32.9433 31.1823 32.4133 31.0095 31.8298 30.8555C31.2464 30.7014 30.7191 30.4989 30.658 30.4056C30.5969 30.3123 30.3978 29.7084 30.2155 29.0634L29.8842 27.8906L29.6183 28.8281ZM36.3845 31.0172C36.337 31.1023 36.2078 31.5061 36.0973 31.9145C35.8995 32.6464 35.883 32.6611 34.9409 32.9386L33.9853 33.22L34.9223 33.524L35.8594 33.8281L36.1577 34.7656L36.4559 35.7031L36.7155 34.7656C36.9661 33.86 36.9984 33.8211 37.6672 33.6198C38.8555 33.2622 38.8627 33.2494 38.0172 32.9865C37.0178 32.6758 37.0081 32.6661 36.712 31.6719C36.5795 31.2267 36.4322 30.9322 36.3845 31.0172Z" fill="#128940"/>
</svg>
