<svg width="42" height="43" viewBox="0 0 42 43" fill="none" xmlns="http://www.w3.org/2000/svg">
<g clip-path="url(#clip0_1006_29)">
<path d="M33.4417 3.51025H14.1743V11.5003H37.5567V7.62367C37.5567 5.35532 35.7107 3.51025 33.4417 3.51025Z" fill="#CED9F9"/>
<path d="M22.5352 12.7299H0V5.31601C0 2.59937 2.21068 0.389648 4.92828 0.389648H12.1336C12.8497 0.389648 13.5396 0.540573 14.1664 0.824158C15.0418 1.21861 15.7939 1.86877 16.3213 2.71825L22.5352 12.7299Z" fill="#004E8A"/>
<path d="M42 14.3895V38.2709C42 40.5421 40.1511 42.3894 37.8789 42.3894H4.12111C1.84891 42.3894 0 40.5421 0 38.2709V10.27H37.8789C40.1511 10.27 42 12.118 42 14.3895Z" fill="#005A93"/>
<path d="M42 14.3895V38.2709C42 40.5421 40.1511 42.3894 37.8789 42.3894H21V10.27H37.8789C40.1511 10.27 42 12.118 42 14.3895Z" fill="#005A93"/>
<path d="M32.048 26.3297C32.048 32.4221 27.0919 37.3786 21.0001 37.3786C14.9083 37.3786 9.95215 32.4221 9.95215 26.3297C9.95215 20.2382 14.9083 15.2817 21.0001 15.2817C27.0919 15.2817 32.048 20.2382 32.048 26.3297Z" fill="#E7ECFC"/>
<path d="M32.0479 26.3297C32.0479 32.4221 27.0918 37.3786 21 37.3786V15.2817C27.0918 15.2817 32.0479 20.2382 32.0479 26.3297Z" fill="#CED9F9"/>
<path d="M24.5612 26.465C24.3308 26.6601 24.0485 26.7553 23.7688 26.7553C23.4185 26.7553 23.0705 26.6069 22.827 26.3179L22.2307 25.611V30.239C22.2307 30.9184 21.6795 31.4695 21.0002 31.4695C20.3209 31.4695 19.7698 30.9184 19.7698 30.239V25.611L19.1734 26.3179C18.7344 26.8373 17.9587 26.9036 17.4392 26.465C16.9201 26.0269 16.8535 25.2508 17.2915 24.7314L19.7271 21.844C20.0447 21.4684 20.508 21.2524 21.0002 21.2524C21.4924 21.2524 21.9558 21.4684 22.2733 21.844L24.7089 24.7314C25.147 25.2508 25.0803 26.0269 24.5612 26.465Z" fill="#6C8DEF"/>
<path d="M24.561 26.465C24.3306 26.6601 24.0483 26.7553 23.7686 26.7553C23.4183 26.7553 23.0703 26.6069 22.8268 26.3179L22.2305 25.611V30.239C22.2305 30.9184 21.6793 31.4695 21 31.4695V21.2524C21.4922 21.2524 21.9555 21.4684 22.2731 21.844L24.7087 24.7314C25.1467 25.2508 25.0801 26.0269 24.561 26.465Z" fill="#3B67E9"/>
</g>
<defs>
<clipPath id="clip0_1006_29">
<rect width="42" height="42" fill="white" transform="translate(0 0.389648)"/>
</clipPath>
</defs>
</svg>
