<svg width="386" height="483" viewBox="0 0 386 483" fill="none" xmlns="http://www.w3.org/2000/svg">
<path d="M190.148 243.766C190.148 240.414 192.361 237.781 195.203 237.781C197.98 237.781 200.257 240.414 200.257 243.766C200.257 247.008 197.98 249.707 195.203 249.707C192.361 249.707 190.148 247.008 190.148 243.766Z" fill="#004F91"/>
<path d="M174.591 244.096C174.591 244.096 195.46 259.722 210.862 244.553C212.532 242.617 214.072 242.421 215.743 243.944C216.48 245.141 216.675 246.621 214.614 248.296L206.848 255.347C205.33 257.023 204.462 258.808 204.093 260.614V278.459C202.64 284.835 202.64 287.577 199.972 287.621C198.149 287.512 196.956 284.16 197.195 278.546C197.52 275.608 196.826 274.085 195.373 274.085C193.811 274.085 193.203 275.194 193.095 278.546C193.203 284.835 191.533 287.512 189.863 287.512C187.932 287.555 187.043 285.118 186.066 278.132L186.37 261.55C186.24 260.07 184.765 257.437 182.791 256.022C179.45 253.345 175.61 250.451 172.834 248.166C171.12 247.013 170.708 245.99 171.792 244.619C172.4 243.705 173.268 243.487 174.591 244.096Z" fill="#004F91"/>
<path d="M140.926 176.827C144.18 177.327 146.436 180.004 146.024 182.768C145.634 185.553 142.597 187.359 139.321 186.881C136.132 186.38 133.876 183.682 134.267 180.94C134.657 178.154 137.694 176.326 140.926 176.827Z" fill="#96B522"/>
<path d="M143.271 161.573C143.271 161.573 124.68 179.766 137.132 197.459C138.802 199.396 138.759 201.006 136.98 202.334C135.679 202.878 134.203 202.878 132.902 200.615L127.132 191.844C125.678 190.06 124.16 188.907 122.337 188.297L104.831 185.468C98.692 183.053 96.002 182.574 96.4576 179.897C96.7613 178.113 100.232 177.46 105.872 178.635C108.649 179.397 110.254 178.983 110.515 177.46C110.71 175.893 109.69 175.175 106.458 174.565C100.232 173.608 97.8026 171.519 98.0629 169.908C98.3666 167.971 100.861 167.471 107.955 167.623L124.203 170.496C125.656 170.605 128.476 169.538 130.147 167.819C133.271 164.968 136.828 161.573 139.518 159.201C140.928 157.678 141.97 157.482 143.206 158.679C144.009 159.484 144.009 160.355 143.271 161.573Z" fill="#96B522"/>
<path d="M149.673 220.547C152.167 218.349 155.703 218.349 157.46 220.482C159.391 222.615 158.892 226.053 156.332 228.251C153.881 230.384 150.388 230.427 148.458 228.316C146.701 226.162 147.2 222.724 149.673 220.547Z" fill="#004F91"/>
<path d="M139.586 209.381C139.586 209.381 141.517 235.387 163.08 237.171C165.488 237.128 166.768 238.172 166.659 240.37C166.204 241.785 165.206 242.895 162.646 242.438L152.277 241.241C150.021 241.197 148.09 241.632 146.528 242.59L133.1 254.254C127.286 257.41 125.161 259.129 123.425 257.149C122.34 255.734 123.946 252.644 128.48 249.075C130.866 247.399 131.56 245.941 130.562 244.788C129.564 243.613 128.371 243.874 125.811 246.007C121.061 250.163 117.98 250.729 116.852 249.401C115.551 248.03 116.7 245.745 121.451 240.435L134.033 229.794C135.096 228.727 136.115 225.833 135.92 223.461C135.768 219.196 135.421 214.386 135.248 210.796C134.987 208.706 135.551 207.792 137.265 207.597C138.415 207.444 139.109 207.945 139.586 209.381Z" fill="#004F91"/>
<path d="M171.296 143.381C172.706 146.319 171.903 149.692 169.322 150.976C166.806 152.195 163.595 150.758 162.12 147.777C160.71 144.839 161.643 141.444 164.094 140.225C166.654 138.963 169.886 140.378 171.296 143.381Z" fill="#004F91"/>
<path d="M185.011 136.18C185.011 136.18 159.543 131.327 152.254 151.74C151.647 154.177 150.28 155.091 148.22 154.416C146.94 153.589 146.137 152.392 147.178 150.02L151.148 140.271C151.734 138.095 151.777 136.114 151.3 134.33L143.491 118.313C142.015 111.871 140.866 109.391 143.274 108.172C144.944 107.475 147.46 109.956 149.738 115.179C150.649 117.921 151.907 118.966 153.383 118.357C154.749 117.595 154.793 116.376 153.383 113.351C150.584 107.715 150.888 104.581 152.363 103.819C154.142 102.949 156.007 104.733 159.89 110.609L166.876 125.603C167.613 126.865 170.108 128.606 172.516 128.998C176.572 129.956 181.366 130.87 184.859 131.675C186.942 131.98 187.679 132.741 187.31 134.417C187.159 135.636 186.573 136.136 185.011 136.18Z" fill="#004F91"/>
<path d="M241.801 185.297C238.569 185.906 235.553 184.165 235.033 181.445C234.469 178.638 236.638 175.961 239.892 175.308C243.102 174.655 246.161 176.375 246.66 179.16C247.267 181.902 245.076 184.644 241.801 185.297Z" fill="#004F91"/>
<path d="M244.665 199.741C244.665 199.741 256.01 176.26 238.201 163.942C235.988 162.724 235.489 161.135 236.574 159.329C237.702 158.371 239.068 157.849 241.129 159.525L249.503 165.814C251.39 166.989 253.299 167.533 255.164 167.533L272.671 164.138C279.179 164.334 281.89 163.877 282.411 166.467C282.715 168.295 279.699 170.123 274.016 170.928C271.152 171.189 269.764 172.081 269.981 173.626C270.393 175.128 271.499 175.476 274.818 174.976C281.001 173.714 283.929 174.823 284.277 176.434C284.645 178.327 282.498 179.676 275.773 181.961L259.525 184.79C258.093 185.247 255.772 187.228 254.796 189.404C252.8 193.169 250.674 197.499 248.939 200.655C248.179 202.614 247.268 203.136 245.706 202.418C244.665 201.961 244.275 201.221 244.665 199.741Z" fill="#004F91"/>
<path d="M219.219 147.054C217.722 149.949 214.49 151.211 211.952 149.883C209.544 148.621 208.72 145.183 210.347 142.223C211.844 139.351 215.141 138.023 217.636 139.351C220.065 140.678 220.824 144.117 219.219 147.054Z" fill="#96B522"/>
<path d="M232.991 153.978C232.991 153.978 221.928 130.41 201.102 136.481C198.846 137.439 197.328 136.873 196.677 134.806C196.525 133.326 197.024 131.911 199.649 131.454L209.693 128.865C211.819 128.059 213.532 126.928 214.595 125.513L223.034 109.736C227.351 104.774 228.652 102.402 230.952 103.599C232.601 104.513 232.08 108.017 229.151 112.935C227.546 115.372 227.373 117.004 228.739 117.766C230.149 118.462 231.104 117.766 232.774 114.85C235.724 109.279 238.436 107.668 239.911 108.408C241.581 109.279 241.213 111.868 238.761 118.484L230.843 132.978C230.214 134.327 230.388 137.33 231.342 139.506C233.056 143.445 235.074 147.819 236.505 151.105C237.525 152.977 237.286 154 235.811 154.805C234.77 155.393 233.88 155.175 232.991 153.978Z" fill="#96B522"/>
<path d="M228.869 226.444C226.309 224.377 225.593 220.917 227.394 218.741C229.151 216.521 232.644 216.456 235.225 218.545C237.763 220.612 238.392 224.072 236.679 226.249C234.856 228.425 231.342 228.534 228.869 226.444Z" fill="#96B522"/>
<path d="M219.303 238.789C219.303 238.789 244.467 232.391 242.515 210.76C241.951 208.322 242.84 206.908 245.031 206.646C246.398 206.842 247.721 207.561 247.721 210.172L248.263 220.683C248.719 222.903 249.5 224.731 250.65 226.145L264.49 237.331C268.525 242.51 270.65 244.273 268.98 246.362C267.765 247.733 264.403 246.602 260.173 242.815C258.09 240.726 256.528 240.269 255.531 241.444C254.598 242.706 255.01 243.838 257.613 246.014C262.472 249.909 263.557 252.913 262.472 254.218C261.344 255.742 258.936 254.937 252.862 251.237L240.172 240.595C239.022 239.79 236.028 239.29 233.664 239.942C229.564 240.813 224.813 242.032 221.364 242.728C219.347 243.337 218.392 242.989 217.936 241.313C217.633 240.204 217.98 239.442 219.303 238.789Z" fill="#96B522"/>
<path d="M145.288 332.559C145.939 329.295 148.716 327.184 151.471 327.728C154.139 328.337 155.809 331.427 155.202 334.67C154.529 337.847 151.709 340.002 148.976 339.436C146.264 338.848 144.594 335.758 145.288 332.559Z" fill="#004F91"/>
<path d="M130.993 329.62C130.993 329.62 148.131 349.184 166.309 337.628C168.392 336.061 169.954 336.192 171.169 337.976C171.733 339.347 171.624 340.871 169.195 342.046L160.192 347.356C158.457 348.683 157.155 350.206 156.482 351.926L152.773 369.357C149.953 375.342 149.389 377.975 146.699 377.474C145.007 377.017 144.486 373.514 145.961 367.986C146.851 365.201 146.569 363.568 145.007 363.198C143.51 362.959 142.729 363.873 141.948 367.116C140.625 373.296 138.456 375.625 136.85 375.211C134.963 374.928 134.638 372.382 135.115 365.288L138.868 349.118C139.02 347.639 138.108 344.809 136.46 342.981C133.77 339.695 130.581 336.061 128.39 333.254C126.937 331.73 126.828 330.664 128.108 329.489C128.911 328.749 129.778 328.706 130.993 329.62Z" fill="#004F91"/>
<path d="M99.1926 231.295C101.839 229.315 105.267 229.511 107.045 231.796C108.716 234.016 107.891 237.476 105.267 239.456C102.685 241.415 99.1926 241.241 97.4137 238.999C95.7434 236.714 96.5677 233.319 99.1926 231.295Z" fill="#004F91"/>
<path d="M90.2996 219.656C90.2996 219.656 90.4081 245.705 111.819 249.013C114.357 249.143 115.464 250.319 115.203 252.451C114.683 253.822 113.663 254.889 111.125 254.236L100.821 252.321C98.5864 252.125 96.6123 252.43 94.942 253.278L80.7981 263.985C74.724 266.727 72.5765 268.294 70.8627 266.205C69.9082 264.638 71.8389 261.7 76.4812 258.501C79.0627 256.978 79.822 255.607 78.9542 254.279C77.9997 253.082 76.7849 253.256 74.0516 255.193C69.0622 259.045 65.8516 259.35 64.8971 257.979C63.704 256.521 65.114 254.323 70.1034 249.361L83.4881 239.59C84.5293 238.611 85.7224 235.825 85.6574 233.409C85.8526 229.144 85.8526 224.291 85.9177 220.744C85.8526 218.655 86.46 217.763 88.1303 217.697C89.3885 217.697 90.061 218.198 90.2996 219.656Z" fill="#004F91"/>
<path d="M100.019 146.58C103.251 147.233 105.421 149.975 104.922 152.717C104.336 155.502 101.277 157.221 98.0884 156.568C94.8561 155.959 92.6868 153.217 93.1424 150.453C93.6847 147.69 96.7868 145.97 100.019 146.58Z" fill="#004F91"/>
<path d="M102.75 131.214C102.75 131.214 83.5513 148.688 95.4174 166.838C96.9793 168.797 96.9142 170.429 95.1571 171.713C93.747 172.213 92.2719 172.17 91.0354 169.776L85.6555 160.853C84.2455 159.025 82.7053 157.742 80.9698 157.089L63.572 153.694C57.5414 151.061 54.8731 150.495 55.3937 147.818C55.7842 146.034 59.2768 145.489 64.7217 146.86C67.5852 147.731 69.1688 147.426 69.5159 145.903C69.7762 144.336 68.8217 143.574 65.5894 142.878C59.3636 141.703 57.0424 139.592 57.3461 137.916C57.6498 136.045 60.253 135.588 67.3249 136.045L83.4428 139.44C84.8962 139.592 87.7597 138.634 89.5385 137.002C92.7491 134.217 96.3502 130.974 99.1486 128.689C100.559 127.231 101.622 127.079 102.858 128.341C103.531 129.124 103.639 129.995 102.75 131.214Z" fill="#004F91"/>
<path d="M170.668 91.6327C171.969 94.6576 170.841 98.009 168.281 99.1406C165.743 100.25 162.619 98.6836 161.253 95.6369C160.038 92.612 161.036 89.2606 163.682 88.129C166.264 86.9974 169.323 88.586 170.668 91.6327Z" fill="#004F91"/>
<path d="M184.702 85.4482C184.702 85.4482 159.495 79.2678 151.165 99.2889C150.384 101.683 149.039 102.531 146.957 101.726C145.807 100.921 145.004 99.6371 146.219 97.3086L150.644 87.7768C151.36 85.6441 151.534 83.6637 151.165 81.8575L144.18 65.4271C143.03 58.9203 142.011 56.3959 144.44 55.3513C146.154 54.6767 148.519 57.3099 150.536 62.6416C151.36 65.4271 152.51 66.5805 153.985 65.9929C155.395 65.3401 155.504 64.1649 154.289 61.0312C151.794 55.2642 152.271 52.1087 153.833 51.4559C155.547 50.6507 157.282 52.5222 160.862 58.6591L167.066 74.0232C167.847 75.2854 170.233 77.1569 172.576 77.6574C176.568 78.8761 181.318 79.986 184.746 81.0088C186.763 81.4223 187.523 82.1839 187.132 83.9031C186.872 84.9912 186.221 85.4918 184.702 85.4482Z" fill="#004F91"/>
<path d="M257.553 115.025C256.142 118.006 252.975 119.486 250.459 118.267C247.812 117.092 246.923 113.697 248.333 110.716C249.743 107.713 252.932 106.255 255.427 107.43C257.965 108.627 258.897 111.978 257.553 115.025Z" fill="#004F91"/>
<path d="M271.651 121.223C271.651 121.223 259.351 98.2642 239.025 105.446C236.682 106.469 235.185 106.012 234.361 103.988C234.231 102.53 234.578 101.093 237.203 100.44L247.16 97.3502C249.243 96.4362 250.761 95.2611 251.867 93.7377L259.351 77.5685C263.365 72.3456 264.645 69.9083 267.074 71.0399C268.701 71.9104 268.398 75.3923 265.773 80.4629C264.211 82.9437 264.102 84.5759 265.556 85.2723C266.966 85.8816 267.942 85.1635 269.46 82.1821C272.085 76.4587 274.667 74.6742 276.25 75.3923C277.899 76.154 277.769 78.7437 275.643 85.5334L268.463 100.375C267.964 101.811 268.159 104.793 269.33 106.926C271.196 110.734 273.452 115.021 275.036 118.264C276.099 120.048 276.055 121.114 274.493 121.92C273.409 122.485 272.693 122.333 271.651 121.223Z" fill="#004F91"/>
<path d="M292.779 195.83C289.504 196.331 286.488 194.525 286.054 191.717C285.642 188.932 287.898 186.299 291.109 185.733C294.45 185.211 297.4 187.06 297.877 189.846C298.224 192.631 296.033 195.265 292.779 195.83Z" fill="#004F91"/>
<path d="M295.518 210.535C295.518 210.535 307.601 187.467 290.268 174.541C288.164 173.213 287.708 171.646 288.902 169.884C289.986 168.904 291.44 168.469 293.37 170.232L301.505 176.826C303.479 178.044 305.323 178.654 307.145 178.697L324.738 175.912C331.246 176.369 333.936 176.021 334.435 178.654C334.652 180.482 331.528 182.158 325.91 182.745C322.981 182.897 321.571 183.768 321.788 185.335C322.113 186.858 323.198 187.272 326.582 186.858C332.678 185.792 335.607 187.01 335.91 188.686C336.214 190.558 333.98 191.82 327.276 193.866L310.898 196.194C309.488 196.542 307.145 198.414 306.061 200.612C303.935 204.29 301.679 208.555 299.813 211.667C298.989 213.582 298.099 214.039 296.472 213.277C295.453 212.755 295.106 212.015 295.518 210.535Z" fill="#004F91"/>
<path d="M251.11 276.024C248.464 273.979 247.835 270.54 249.549 268.364C251.262 266.144 254.755 265.992 257.315 267.994C259.961 270.018 260.634 273.478 258.942 275.698C257.163 277.896 253.605 278.026 251.11 276.024Z" fill="#004F91"/>
<path d="M242.563 287.549C242.563 287.549 267.683 280.694 265.232 259.106C264.711 256.668 265.536 255.254 267.727 254.949C269.202 255.102 270.438 255.841 270.503 258.496L271.219 268.942C271.653 271.162 272.477 272.99 273.692 274.361L287.749 285.351C291.871 290.465 293.997 292.141 292.392 294.273C291.177 295.688 287.793 294.578 283.497 290.878C281.437 288.789 279.81 288.398 278.899 289.616C277.901 290.878 278.443 291.988 281.024 294.121C286.014 297.929 287.077 300.911 286.079 302.238C284.929 303.805 282.435 303 276.339 299.387L263.54 288.985C262.347 288.18 259.266 287.766 257.032 288.419C252.889 289.399 248.225 290.639 244.689 291.401C242.693 292.075 241.717 291.705 241.218 290.095C240.957 289.007 241.196 288.245 242.563 287.549Z" fill="#004F91"/>
<path d="M213.275 289.509C213.123 286.223 215.293 283.481 218.069 283.372C220.868 283.264 223.21 285.853 223.362 289.161C223.471 292.447 221.302 295.233 218.525 295.298C215.661 295.407 213.34 292.817 213.275 289.509Z" fill="#96B522"/>
<path d="M198.242 290.035C198.242 290.035 219.566 304.877 234.513 289.164C236.031 287.184 237.68 286.945 239.285 288.403C240.066 289.621 240.348 291.101 238.309 292.82L230.89 300.111C229.415 301.83 228.504 303.658 228.244 305.486L228.916 323.287C227.68 329.772 227.745 332.514 225.076 332.623C223.254 332.623 221.931 329.337 221.931 323.636C222.148 320.698 221.519 319.218 219.913 319.218C218.395 319.327 217.896 320.436 217.896 323.788C218.2 330.077 216.638 332.819 214.967 332.863C213.037 332.971 212.039 330.643 210.867 323.636L210.585 307.075C210.369 305.617 208.763 303.027 206.724 301.656C203.448 299.131 199.392 296.346 196.528 294.148C194.815 293.082 194.446 292.08 195.422 290.644C195.964 289.665 196.767 289.469 198.242 290.035Z" fill="#96B522"/>
<path d="M128.912 267.12C131.407 264.922 134.986 264.9 136.809 267.011C138.631 269.144 138.11 272.626 135.616 274.78C133.099 276.956 129.563 277 127.784 274.889C125.94 272.734 126.505 269.296 128.912 267.12Z" fill="#96B522"/>
<path d="M119.208 255.847C119.208 255.847 121.138 281.809 142.766 283.594C145.218 283.528 146.454 284.638 146.346 286.836C145.89 288.207 144.936 289.361 142.289 288.86L131.985 287.641C129.664 287.598 127.798 288.033 126.236 289.012L112.743 300.72C107.016 303.832 104.89 305.595 103.133 303.549C101.983 302.135 103.697 299.023 108.144 295.497C110.574 293.822 111.333 292.385 110.335 291.189C109.272 290.013 108.079 290.34 105.519 292.386C100.79 296.586 97.6449 297.108 96.5602 295.846C95.1936 294.431 96.4734 292.146 101.137 286.836L113.763 276.173C114.761 275.128 115.845 272.277 115.628 269.84C115.476 265.575 115.129 260.765 115.021 257.174C114.717 255.085 115.281 254.171 116.952 254.041C118.145 253.932 118.796 254.389 119.208 255.847Z" fill="#96B522"/>
<path d="M91.2942 191.496C94.5265 191.953 96.8694 194.587 96.4572 197.372C96.1101 200.158 93.1165 202.029 89.8842 201.572C86.6086 201.115 84.2657 198.482 84.6779 195.696C85.0901 192.911 87.9969 191.039 91.2942 191.496Z" fill="#96B522"/>
<path d="M93.0293 176.37C93.0293 176.37 74.6769 194.89 87.5843 212.365C89.2547 214.301 89.2547 215.868 87.5409 217.218C86.1526 217.783 84.6991 217.827 83.3758 215.542L77.4753 206.881C75.9351 205.161 74.3733 203.986 72.6378 203.42L55.0231 200.939C48.8623 198.611 46.2157 198.154 46.5845 195.521C46.8882 193.693 50.3374 192.996 55.9125 193.997C58.776 194.759 60.3162 194.346 60.5765 192.779C60.7066 191.255 59.7522 190.559 56.4114 189.993C50.2072 189.123 47.7776 187.099 48.0379 185.423C48.2982 183.552 50.7495 183.008 57.8215 183.051L74.1563 185.619C75.6314 185.662 78.3864 184.553 80.0568 182.833C83.1806 179.939 86.5864 176.501 89.2113 174.063C90.5562 172.496 91.5758 172.279 92.8774 173.454C93.7451 174.303 93.8536 175.108 93.0293 176.37Z" fill="#96B522"/>
<path d="M129.714 114.81C131.232 117.769 130.343 121.143 127.826 122.47C125.353 123.732 122.121 122.361 120.646 119.423C119.193 116.485 119.93 113.091 122.425 111.828C124.985 110.501 128.195 111.872 129.714 114.81Z" fill="#96B522"/>
<path d="M142.924 107.888C142.924 107.888 117.348 103.492 110.363 124.013C109.799 126.494 108.432 127.408 106.415 126.755C105.156 125.994 104.31 124.819 105.352 122.381L109.105 112.61C109.647 110.369 109.69 108.41 109.105 106.625L101.056 90.7609C99.4728 84.3629 98.258 81.9255 100.601 80.6633C102.315 79.9017 104.874 82.2955 107.217 87.5184C108.172 90.2386 109.495 91.305 110.905 90.6521C112.207 89.8905 112.207 88.6718 110.797 85.6251C107.933 80.054 108.15 76.855 109.668 76.0933C111.382 75.1793 113.248 76.9638 117.196 82.7743L124.485 97.6378C125.331 98.9 127.826 100.576 130.125 100.924C134.29 101.838 139.128 102.643 142.577 103.405C144.703 103.644 145.44 104.406 145.18 106.081C145.006 107.278 144.421 107.844 142.924 107.888Z" fill="#96B522"/>
<path d="M215.921 94.3304C214.663 97.3553 211.496 98.944 208.979 97.8341C206.376 96.7678 205.335 93.4164 206.593 90.3697C207.83 87.2795 210.975 85.7562 213.6 86.8443C216.138 87.9324 217.244 91.2837 215.921 94.3304Z" fill="#96B522"/>
<path d="M229.87 100.032C229.87 100.032 216.789 77.5078 196.572 85.3857C194.337 86.5609 192.819 86.0821 191.994 84.1235C191.777 82.6437 192.146 81.2291 194.663 80.4675L204.511 77.0291C206.529 76.0498 208.047 74.8529 209.11 73.2642L216.03 56.8556C219.913 51.5239 220.976 49.043 223.514 50.0659C225.076 50.8275 224.881 54.3748 222.473 59.4888C220.976 62.0785 220.976 63.6889 222.43 64.3418C223.883 64.8858 224.838 64.1459 226.248 61.0992C228.677 55.267 231.194 53.439 232.799 54.0483C234.578 54.81 234.469 57.3344 232.56 64.1894L225.835 79.3576C225.38 80.7721 225.792 83.7753 227.007 85.8427C228.981 89.5858 231.454 93.7423 233.103 96.9414C234.231 98.7258 234.166 99.7704 232.69 100.641C231.693 101.25 230.89 101.098 229.87 100.032Z" fill="#96B522"/>
<path d="M282.993 151.256C279.718 152.061 276.594 150.494 275.965 147.752C275.271 145.01 277.332 142.181 280.477 141.354C283.709 140.549 286.833 142.116 287.484 144.858C288.2 147.6 286.182 150.45 282.993 151.256Z" fill="#96B522"/>
<path d="M286.353 164.424C286.353 164.424 296.419 140.399 278.088 128.974C275.789 127.864 275.247 126.363 276.31 124.469C277.242 123.447 278.674 122.837 280.757 124.469L289.456 130.302C291.495 131.368 293.36 131.825 295.161 131.673L312.494 127.364C319.067 127.277 321.691 126.646 322.386 129.235C322.754 131.02 319.826 132.978 314.207 134.088C311.279 134.502 310.021 135.459 310.303 136.983C310.758 138.506 311.973 138.811 315.249 138.092C321.323 136.482 324.36 137.418 324.772 139.093C325.271 140.921 323.167 142.401 316.55 144.991L300.454 148.734C299.087 149.235 296.918 151.324 296.007 153.543C294.185 157.395 292.319 161.857 290.801 165.121C290.041 167.079 289.239 167.711 287.59 167.036C286.527 166.644 286.158 165.883 286.353 164.424Z" fill="#96B522"/>
<path d="M280.09 238.981C277.509 237.001 276.641 233.606 278.312 231.321C279.96 229.036 283.409 228.775 286.121 230.711C288.789 232.648 289.614 236.087 287.943 238.372C286.316 240.613 282.78 240.918 280.09 238.981Z" fill="#96B522"/>
<path d="M271.499 251.102C271.499 251.102 296.316 243.442 293.192 221.963C292.584 219.525 293.344 218.111 295.513 217.697C296.966 217.784 298.311 218.459 298.355 221.136L299.548 231.538C300.003 233.779 300.914 235.542 302.151 236.848L316.512 247.337C320.829 252.321 323.02 253.996 321.501 256.173C320.33 257.587 316.924 256.63 312.455 253.039C310.264 251.059 308.702 250.71 307.813 251.973C306.945 253.235 307.509 254.345 310.156 256.39C315.232 260.046 316.468 262.984 315.384 264.333C314.342 265.922 311.891 265.204 305.6 261.853L292.411 251.864C291.153 251.102 288.224 250.797 285.946 251.559C281.846 252.625 277.247 254.04 273.755 254.997C271.781 255.716 270.783 255.411 270.219 253.735C269.872 252.669 270.132 251.842 271.499 251.102Z" fill="#96B522"/>
<path d="M273.014 319.937C270.562 317.739 270.042 314.257 271.864 312.19C273.73 310.057 277.179 310.057 279.673 312.233C282.146 314.41 282.71 317.848 280.78 319.981C279.044 322.113 275.508 322.07 273.014 319.937Z" fill="#96B522"/>
<path d="M263.104 331.228C263.104 331.228 288.463 325.7 287.205 304.069C286.793 301.588 287.725 300.282 289.895 300.064C291.348 300.282 292.606 301.065 292.52 303.72L292.671 314.21C292.975 316.451 293.669 318.323 294.841 319.737L308.269 331.445C312.152 336.777 314.169 338.605 312.455 340.629C311.197 341.956 307.922 340.672 303.8 336.777C301.782 334.579 300.199 334.079 299.223 335.254C298.268 336.472 298.659 337.582 301.088 339.867C305.839 343.98 306.837 346.962 305.731 348.224C304.516 349.747 302.086 348.833 296.186 344.873L283.886 333.817C282.693 332.947 279.699 332.403 277.378 332.903C273.213 333.665 268.462 334.688 264.991 335.297C262.974 335.863 261.976 335.45 261.607 333.774C261.347 332.664 261.694 331.902 263.104 331.228Z" fill="#96B522"/>
<path d="M330.136 249.685C327.403 247.814 326.578 244.419 328.119 242.091C329.789 239.827 333.281 239.501 335.885 241.372C338.553 243.244 339.529 246.639 337.902 248.967C336.319 251.252 332.826 251.557 330.136 249.685Z" fill="#96B522"/>
<path d="M321.909 261.699C321.909 261.699 346.596 253.539 343.103 232.147C342.431 229.709 343.212 228.251 345.338 227.859C346.791 227.946 348.093 228.621 348.309 231.254L349.568 241.635C350.067 243.876 350.978 245.595 352.258 246.901L366.857 257.151C371.239 262.026 373.473 263.636 371.998 265.878C370.87 267.292 367.464 266.378 362.931 262.875C360.761 260.938 359.199 260.611 358.245 261.852C357.356 263.179 357.941 264.246 360.631 266.269C365.794 269.817 367.052 272.755 366.076 274.147C364.991 275.714 362.497 275.105 356.292 271.819L342.908 262.135C341.65 261.373 338.678 261.068 336.335 261.873C332.278 263.049 327.701 264.55 324.209 265.53C322.278 266.291 321.237 265.987 320.716 264.354C320.26 263.223 320.608 262.461 321.909 261.699Z" fill="#96B522"/>
<path d="M332.763 163.184C329.488 163.749 326.451 161.987 326.017 159.245C325.496 156.459 327.731 153.761 330.919 153.151C334.26 152.607 337.232 154.37 337.731 157.155C338.165 159.897 336.017 162.574 332.763 163.184Z" fill="#96B522"/>
<path d="M335.341 176.374C335.341 176.374 347.077 153.11 329.462 140.488C327.271 139.161 326.794 137.637 328.009 135.809C329.05 134.873 330.482 134.395 332.456 136.114L340.742 142.555C342.716 143.731 344.604 144.318 346.361 144.318L363.954 141.25C370.462 141.598 373.13 141.141 373.651 143.774C373.889 145.602 370.831 147.387 365.212 148.083C362.24 148.301 360.917 149.149 361.112 150.716C361.459 152.24 362.631 152.588 365.906 152.131C372.132 150.956 375.017 152.131 375.364 153.806C375.668 155.678 373.434 157.005 366.774 159.138L350.461 161.771C349.029 162.12 346.665 164.035 345.602 166.211C343.584 169.954 341.393 174.263 339.679 177.418C338.833 179.29 337.922 179.856 336.36 179.094C335.232 178.615 334.972 177.853 335.341 176.374Z" fill="#96B522"/>
<path d="M297.702 81.903C296.292 84.8844 293.06 86.3642 290.565 85.1455C288.049 83.9921 287.073 80.5972 288.483 77.5941C289.849 74.6127 293.06 73.1329 295.555 74.3515C298.158 75.5267 299.112 78.9216 297.702 81.903Z" fill="#96B522"/>
<path d="M311.785 88.2803C311.785 88.2803 299.442 65.3214 278.963 72.4593C276.729 73.5257 275.232 73.0251 274.386 71.0013C274.278 69.5867 274.625 68.1069 277.25 67.4976L287.207 64.4074C289.289 63.4934 290.895 62.2747 291.892 60.7948L299.42 44.6256C303.433 39.4027 304.691 36.9654 307.099 38.0535C308.705 38.924 308.444 42.4712 305.754 47.4765C304.279 50.0009 304.127 51.5895 305.602 52.3294C307.012 52.9387 307.989 52.1771 309.507 49.1957C312.132 43.4722 314.757 41.753 316.275 42.4494C317.989 43.2111 317.794 45.7355 315.603 52.5253L308.488 67.4323C307.967 68.8033 308.249 71.85 309.334 73.9827C311.243 77.7693 313.542 82.0346 315.104 85.2772C316.102 87.0399 316.058 88.128 314.54 88.9767C313.564 89.5425 312.696 89.3902 311.785 88.2803Z" fill="#96B522"/>
<path d="M212.971 44.5328C211.713 47.623 208.611 49.2334 206.051 48.1889C203.426 47.1225 202.298 43.8364 203.556 40.7462C204.793 37.6995 207.916 36.0674 210.476 37.0902C213.058 38.1565 214.164 41.4861 212.971 44.5328Z" fill="#96B522"/>
<path d="M226.938 50.1097C226.938 50.1097 213.488 27.8036 193.487 36.0514C191.275 37.2266 189.691 36.8131 188.737 34.8328C188.541 33.3747 188.867 31.9384 191.361 31.1332L201.21 27.5207C203.249 26.5196 204.746 25.2357 205.701 23.6688L212.339 7.15141C216.157 1.71089 217.241 -0.769983 219.649 0.20931C221.363 0.970982 221.211 4.51819 218.803 9.69756C217.48 12.2655 217.48 13.8977 218.955 14.507C220.365 15.051 221.32 14.2458 222.578 11.2209C224.964 5.34516 227.437 3.45186 229.021 4.12648C230.843 4.77934 230.778 7.36904 228.977 14.2676L222.578 29.4575C222.144 30.8721 222.534 33.8752 223.814 35.9426C225.832 39.6422 228.391 43.7987 230.127 46.9325C231.277 48.6517 231.19 49.7398 229.715 50.632C228.825 51.2631 228.001 51.1761 226.938 50.1097Z" fill="#96B522"/>
<path d="M128.953 62.1168C130.472 65.0547 129.647 68.4931 127.174 69.7553C124.571 71.0392 121.404 69.7118 119.929 66.7304C118.41 63.7925 119.213 60.3976 121.708 59.1136C124.224 57.8079 127.456 59.1572 128.953 62.1168Z" fill="#96B522"/>
<path d="M142.446 55.0743C142.446 55.0743 116.826 50.6566 109.906 71.2435C109.32 73.6808 107.975 74.5948 105.915 73.9855C104.635 73.2021 103.789 72.0052 104.895 69.5678L108.604 59.7749C109.125 57.5987 109.168 55.5748 108.648 53.8338L100.556 37.9258C98.9511 31.5495 97.8014 29.1121 100.144 27.8499C101.771 27.0882 104.396 29.5256 106.652 34.705C107.78 37.4905 108.93 38.4916 110.34 37.8387C111.75 37.077 111.75 35.8584 110.34 32.877C107.411 27.2623 107.715 24.1068 109.147 23.3452C110.926 22.3876 112.726 24.1504 116.826 30.0479L124.05 44.8896C124.787 46.1083 127.326 47.784 129.777 48.1757C133.899 49.0462 138.606 49.8514 142.142 50.613C144.224 50.9177 144.984 51.6141 144.723 53.3551C144.528 54.4867 143.921 55.0308 142.446 55.0743Z" fill="#96B522"/>
<path d="M59.7996 117.88C63.0319 118.424 65.353 121.057 64.8975 123.865C64.4419 126.65 61.47 128.478 58.2377 127.912C54.9621 127.455 52.6843 124.779 53.0748 121.993C53.5954 119.186 56.5673 117.358 59.7996 117.88Z" fill="#96B522"/>
<path d="M62.1574 103.292C62.1574 103.292 43.458 121.486 56.04 139.178C57.6669 141.115 57.6018 142.725 55.8881 144.053C54.4781 144.597 53.068 144.597 51.7664 142.334L46.0395 133.563C44.586 131.779 43.0241 130.626 41.2887 130.016L23.6957 127.231C17.5999 124.75 14.8883 124.293 15.3005 121.638C15.6042 119.81 19.1618 119.157 24.7152 120.332C27.5353 121.094 29.0538 120.68 29.4226 119.157C29.5745 117.59 28.5766 116.872 25.301 116.263C19.0968 115.305 16.6888 113.216 16.9709 111.606C17.2312 109.669 19.7692 109.168 26.8411 109.364L43.1109 112.193C44.5643 112.302 47.3844 111.214 49.0548 109.516C52.2654 106.687 55.6495 103.271 58.3177 100.899C59.8363 99.3753 60.7907 99.1794 62.0055 100.376C62.8082 101.203 62.96 102.052 62.1574 103.292Z" fill="#96B522"/>
<path d="M44.9817 207.495C48.2573 208.017 50.5568 210.628 50.0579 213.414C49.6891 216.199 46.6737 218.028 43.4415 217.527C40.1441 217.026 37.9315 214.328 38.3219 211.542C38.7775 208.822 41.7711 206.951 44.9817 207.495Z" fill="#96B522"/>
<path d="M46.8471 192.694C46.8471 192.694 28.2562 210.843 40.7296 228.579C42.3349 230.451 42.3349 232.083 40.5344 233.389C39.2111 233.954 37.7143 233.954 36.391 231.669L30.7292 222.899C29.3191 221.115 27.6487 219.961 25.935 219.374L8.36366 216.588C2.333 214.107 -0.335269 213.65 0.0335127 210.995C0.402294 209.189 3.85149 208.515 9.42659 209.69C12.2033 210.451 13.7652 210.103 14.1123 208.515C14.3292 206.991 13.3747 206.23 10.034 205.62C3.85149 204.663 1.44358 202.617 1.6822 200.963C1.92083 199.048 4.41553 198.526 11.5525 198.743L27.8006 201.594C29.2757 201.703 32.0958 200.637 33.8096 198.896C36.9767 196.067 40.4476 192.715 43.0725 190.278C44.4825 188.776 45.5672 188.602 46.8254 189.821C47.5412 190.626 47.6497 191.431 46.8471 192.694Z" fill="#96B522"/>
<path d="M78.9752 278.501C81.4265 276.412 84.9842 276.412 86.7847 278.61C88.5635 280.721 87.9995 284.181 85.4614 286.313C82.9233 288.424 79.3873 288.424 77.6302 286.248C75.808 284.137 76.372 280.633 78.9752 278.501Z" fill="#96B522"/>
<path d="M69.2096 267.121C69.2096 267.121 70.5979 293.17 92.1824 295.303C94.6988 295.303 95.8703 296.412 95.7184 298.589C95.2629 299.96 94.3084 301.07 91.7269 300.569L81.3577 299.133C79.145 299.089 77.1709 299.503 75.609 300.417L61.9641 311.864C56.0853 314.867 53.9594 316.586 52.2673 314.562C51.1393 313.147 52.9181 310.036 57.4086 306.597C59.8382 304.987 60.6191 303.572 59.5996 302.31C58.6451 301.135 57.3652 301.396 54.7403 303.463C50.0546 307.576 46.9092 308.033 45.8462 306.749C44.4795 305.291 45.8462 303.05 50.6187 297.827L63.4392 287.381C64.4371 286.315 65.5218 283.486 65.3048 281.048C65.1964 276.848 65.0011 271.974 64.9361 268.383C64.6757 266.294 65.1964 265.38 66.9101 265.271C68.1249 265.184 68.7757 265.706 69.2096 267.121Z" fill="#96B522"/>
<path d="M190.93 337.408C190.93 334.122 193.186 331.424 195.984 331.424C198.761 331.424 201.039 334.101 201.039 337.408C201.039 340.76 198.804 343.393 195.984 343.393C193.186 343.393 190.93 340.694 190.93 337.408Z" fill="#96B522"/>
<path d="M175.702 337.476C175.702 337.476 196.527 353.079 211.951 337.933C213.621 336.018 215.227 335.8 216.81 337.324C217.504 338.542 217.743 340.022 215.769 341.676L208.025 348.727C206.506 350.403 205.617 352.165 205.313 353.928V371.773C203.86 378.215 203.794 380.957 201.105 381C199.239 380.913 198.024 377.562 198.328 371.882C198.675 369.009 198.024 367.464 196.462 367.421C194.9 367.464 194.38 368.552 194.228 371.882C194.271 378.171 192.666 380.913 190.952 380.913C189.087 380.957 188.175 378.519 187.199 371.49L187.525 354.951C187.351 353.493 185.854 350.838 183.88 349.423C180.648 346.747 176.787 343.831 173.967 341.567C172.253 340.392 171.927 339.391 172.882 338.02C173.533 337.063 174.335 336.867 175.702 337.476Z" fill="#96B522"/>
<path d="M107.89 311.754C110.254 309.36 113.725 309.055 115.656 310.971C117.738 312.951 117.522 316.455 115.222 318.827C112.944 321.155 109.495 321.525 107.434 319.588C105.395 317.63 105.721 314.126 107.89 311.754Z" fill="#004F91"/>
<path d="M97.2809 301.782C97.2809 301.782 101.403 327.483 123.009 327.331C125.525 327.135 126.892 328.092 126.935 330.269C126.632 331.705 125.786 332.902 123.139 332.662L112.705 332.358C110.47 332.51 108.605 333.119 107.086 334.229L94.7429 347.069C89.2545 350.616 87.3238 352.531 85.3498 350.703C84.1566 349.397 85.5667 346.155 89.6884 342.281C91.9227 340.366 92.4868 338.886 91.3588 337.733C90.2524 336.71 89.1678 337.058 86.6731 339.409C82.4429 343.957 79.3408 344.784 78.1477 343.609C76.781 342.281 77.7789 339.953 81.9874 334.229L93.6582 322.521C94.5042 321.346 95.2635 318.408 94.8513 316.036C94.309 311.836 93.5497 307.07 93.0942 303.458C92.7688 301.434 93.2026 300.476 94.8513 300.172C95.9143 299.954 96.7169 300.368 97.2809 301.782Z" fill="#004F91"/>
<path d="M50.4732 245.836C52.8594 243.964 56.0917 244.16 57.6102 246.293C59.2155 248.382 58.4779 251.624 56.0917 253.431C53.6404 255.324 50.4298 255.106 48.8679 253.039C47.3494 250.906 48.0219 247.707 50.4732 245.836Z" fill="#004F91"/>
<path d="M42.5506 235.283C42.5506 235.283 42.659 259.721 62.3129 262.812C64.6774 262.92 65.7187 263.987 65.5018 266.054C64.9812 267.338 64.0483 268.339 61.6621 267.73L52.2257 265.858C50.0998 265.706 48.3209 265.989 46.8458 266.772L33.7215 276.87C28.2115 279.351 26.1723 280.874 24.6755 278.894C23.6993 277.479 25.4131 274.672 29.7734 271.69C32.0728 270.276 32.8972 268.948 32.0512 267.773C31.1834 266.62 30.0771 266.772 27.539 268.579C22.9618 272.169 20.0332 272.496 19.1004 271.212C18.0592 269.797 19.2957 267.752 23.938 263.116L36.1945 253.998C37.2358 253.019 38.3638 250.451 38.3204 248.166C38.4723 244.205 38.3638 239.657 38.5807 236.262C38.4723 234.325 39.0146 233.52 40.5331 233.476C41.5961 233.411 42.2469 233.912 42.5506 235.283Z" fill="#004F91"/>
<path d="M50.6444 162.988C53.8766 163.619 56.0676 166.339 55.5036 169.125C54.983 171.867 51.9026 173.586 48.7354 172.933C45.5031 172.324 43.3338 169.582 43.8545 166.84C44.3968 164.054 47.4121 162.335 50.6444 162.988Z" fill="#004F91"/>
<path d="M53.4857 147.776C53.4857 147.776 34.2657 165.316 46.1318 183.422C47.7588 185.403 47.6503 187.035 45.8715 188.275C44.4614 188.798 43.008 188.754 41.7932 186.404L36.3699 177.438C34.9599 175.61 33.398 174.391 31.7276 173.738L14.2865 170.343C8.2775 167.645 5.58755 167.079 6.10818 164.468C6.52035 162.683 10.0129 162.117 15.4362 163.51C18.278 164.359 19.905 164.011 20.2304 162.487C20.4473 160.92 19.4928 160.159 16.3039 159.44C10.0346 158.287 7.80026 156.154 8.06058 154.479C8.36428 152.607 10.924 152.15 18.0177 152.607L34.179 156.046C35.6324 156.154 38.4742 155.175 40.253 153.565C43.4853 150.844 47.0863 147.58 49.8413 145.252C51.2514 143.794 52.3143 143.641 53.4857 144.903C54.2884 145.752 54.3751 146.579 53.4857 147.776Z" fill="#004F91"/>
<path d="M86.4395 83.2117C88.1098 86.0843 87.5892 89.6532 85.1379 91.1113C82.7082 92.5694 79.3242 91.416 77.5887 88.5216C75.875 85.6925 76.4173 82.1453 78.8252 80.6655C81.2765 79.2074 84.7257 80.3173 86.4395 83.2117Z" fill="#004F91"/>
<path d="M99.1519 75.3974C99.1519 75.3974 72.7515 72.6989 67.2198 94.1128C66.851 96.6372 65.506 97.66 63.3584 97.203C62.0568 96.4849 61.0807 95.3315 61.9918 92.7853L65.0722 82.5354C65.4843 80.2504 65.4409 78.27 64.66 76.5073L55.4188 60.9474C53.3363 54.5058 51.9479 52.1338 54.1823 50.6975C55.8526 49.827 58.6944 52.0685 61.406 57.1826C62.6642 59.9246 64.0092 60.8821 65.3542 60.1205C66.6557 59.25 66.569 57.9878 64.942 55.0499C61.6013 49.5223 61.6447 46.3233 63.1198 45.4093C64.7901 44.3865 66.8076 46.0186 71.2547 51.6985L79.7366 66.2574C80.561 67.476 83.2292 68.9776 85.7239 69.1952C89.9975 69.8046 94.9001 70.3051 98.5445 70.8274C100.692 70.9797 101.473 71.6326 101.256 73.4171C101.256 74.5922 100.627 75.2016 99.1519 75.3974Z" fill="#004F91"/>
<path d="M170.82 41.4866C171.991 44.6204 170.82 48.0153 168.195 49.0381C165.527 50.0391 162.381 48.3417 161.188 45.1644C159.908 42.0307 161.188 38.6358 163.813 37.613C166.481 36.6119 169.562 38.3529 170.82 41.4866Z" fill="#004F91"/>
<path d="M185.049 35.9629C185.049 35.9629 159.646 28.7814 150.384 48.846C149.603 51.2834 148.127 52.045 146.045 51.1746C144.83 50.2606 144.158 48.9984 145.481 46.6045L150.275 37.138C151.143 34.9618 151.338 32.938 150.991 31.1099L144.526 14.1355C143.485 7.49809 142.596 4.90842 145.069 3.84207C146.869 3.27626 149.277 5.97475 151.034 11.5023C151.772 14.3967 152.965 15.6154 154.484 15.0495C155.937 14.4402 156.045 13.2215 154.982 9.97898C152.618 4.05969 153.225 0.860668 154.787 0.25133C156.609 -0.510342 158.388 1.44825 161.816 7.80277L167.564 23.6673C168.172 25.0166 170.58 26.9534 172.966 27.6062C177.088 28.9337 181.817 30.3047 185.309 31.4146C187.305 31.9151 187.978 32.7203 187.63 34.396C187.305 35.5712 186.567 36.0499 185.049 35.9629Z" fill="#004F91"/>
<path d="M321.674 117.184C318.376 118.033 315.209 116.422 314.515 113.68C313.842 110.895 315.925 107.957 319.157 107.13C322.454 106.325 325.622 107.957 326.338 110.677C327.032 113.484 324.906 116.422 321.674 117.184Z" fill="#004F91"/>
<path d="M325.403 131.364C325.403 131.364 335.664 106.817 316.9 95.1958C314.622 94.086 313.993 92.5844 315.121 90.6476C316.119 89.5159 317.529 88.9719 319.677 90.5823L328.571 96.5233C330.566 97.6332 332.497 98.0902 334.428 97.9814L351.977 93.5637C358.702 93.4113 361.371 92.802 362.086 95.4352C362.433 97.2632 359.44 99.2871 353.8 100.397C350.849 100.81 349.526 101.812 349.786 103.335C350.307 104.858 351.457 105.206 354.732 104.445C361.002 102.878 364.104 103.835 364.429 105.511C364.95 107.383 362.824 108.862 356.143 111.539L339.786 115.347C338.267 115.848 336.098 117.915 335.209 120.266C333.386 124.161 331.521 128.731 329.937 132.017C329.178 134.041 328.267 134.607 326.618 133.954C325.555 133.584 325.121 132.844 325.403 131.364Z" fill="#004F91"/>
<path d="M341.998 207.859C338.723 208.512 335.599 206.728 335.035 203.964C334.493 201.135 336.705 198.328 339.981 197.718C343.322 197.065 346.337 198.785 346.966 201.614C347.508 204.399 345.274 207.25 341.998 207.859Z" fill="#004F91"/>
<path d="M344.666 221.895C344.666 221.895 356.12 198.022 338.05 185.444C335.816 184.182 335.317 182.593 336.532 180.721C337.638 179.698 339.005 179.198 341.022 180.939L349.569 187.381C351.587 188.556 353.517 189.1 355.448 189.1L373.215 185.661C379.831 185.879 382.629 185.357 383.172 188.055C383.41 189.883 380.286 191.755 374.625 192.56C371.653 192.821 370.308 193.779 370.546 195.345C370.872 196.869 372 197.217 375.449 196.651C381.718 195.389 384.733 196.521 385.037 198.24C385.449 200.155 383.215 201.482 376.338 203.811L359.765 206.749C358.355 207.206 356.077 209.186 355.014 211.406C352.997 215.214 350.871 219.654 349.092 222.918C348.289 224.833 347.378 225.399 345.751 224.681C344.666 224.18 344.363 223.419 344.666 221.895Z" fill="#004F91"/>
<path d="M302.694 285.642C300.025 283.509 299.418 279.962 301.175 277.72C302.997 275.566 306.598 275.457 309.137 277.568C311.805 279.657 312.477 283.204 310.59 285.424C308.876 287.665 305.297 287.709 302.694 285.642Z" fill="#004F91"/>
<path d="M293.143 297.326C293.143 297.326 318.806 290.841 316.701 268.796C316.289 266.271 317.092 264.9 319.37 264.596C320.78 264.792 322.146 265.553 322.081 268.252L322.645 278.937C323.123 281.222 323.86 283.05 325.14 284.486L339.132 295.933C343.34 301.221 345.423 302.984 343.796 305.16C342.516 306.531 339.089 305.378 334.837 301.504C332.667 299.393 331.149 298.936 330.043 300.155C329.066 301.439 329.63 302.527 332.147 304.768C337.18 308.773 338.286 311.819 337.18 313.19C336.008 314.714 333.492 313.909 327.353 310.078L314.424 299.284C313.209 298.414 310.193 297.913 307.807 298.566C303.599 299.437 298.848 300.634 295.269 301.417C293.208 302.026 292.253 301.656 291.689 299.981C291.429 298.806 291.798 298.044 293.143 297.326Z" fill="#004F91"/>
<path d="M235.593 335.213C235.268 331.861 237.264 328.924 240.127 328.619C242.926 328.314 245.529 330.817 245.854 334.146C246.223 337.498 244.249 340.436 241.342 340.74C238.5 341.045 236.005 338.564 235.593 335.213Z" fill="#004F91"/>
<path d="M220.219 336.712C220.219 336.712 242.997 350.292 257.054 333.317C258.464 331.119 260.134 330.793 261.848 332.142C262.759 333.317 263.106 334.776 261.197 336.712L254.125 344.655C252.802 346.527 251.999 348.42 251.934 350.292L253.8 368.333C252.975 375.014 253.236 377.756 250.568 378.126C248.68 378.234 247.118 374.97 246.771 369.203C246.771 366.156 246.034 364.742 244.407 364.894C242.823 365.09 242.324 366.222 242.65 369.617C243.344 375.993 241.934 378.931 240.263 379.148C238.289 379.344 237.183 377.016 235.469 369.965L234.016 353.186C233.669 351.706 231.89 349.182 229.807 347.963C226.12 345.57 221.933 343.089 218.896 341.087C216.965 340.064 216.553 339.106 217.421 337.583C218.05 336.56 218.809 336.255 220.219 336.712Z" fill="#004F91"/>
<path d="M167.157 288.856C167.504 285.548 170.064 283.132 172.776 283.415C175.596 283.72 177.57 286.636 177.223 289.922C176.941 293.23 174.359 295.602 171.583 295.297C168.784 295.036 166.788 292.142 167.157 288.856Z" fill="#004F91"/>
<path d="M151.8 287.336C151.8 287.336 170.868 305.006 187.897 291.601C189.719 289.816 191.325 289.816 192.756 291.449C193.32 292.82 193.472 294.299 191.194 295.714L182.821 301.894C181.151 303.418 180.044 305.093 179.48 306.856L177.68 324.614C175.554 330.86 175.272 333.536 172.582 333.341C170.695 333.036 169.914 329.576 170.695 323.961C171.41 321.067 170.911 319.543 169.393 319.348C167.766 319.239 167.115 320.218 166.725 323.548C166.052 329.837 164.187 332.318 162.516 332.165C160.586 332.013 159.956 329.532 159.783 322.394L161.714 305.964C161.714 304.484 160.521 301.698 158.763 300.088C155.791 297.107 152.147 293.799 149.696 291.274C148.134 289.903 147.83 288.881 148.98 287.575C149.739 286.683 150.542 286.574 151.8 287.336Z" fill="#004F91"/>
<path d="M256.854 60.5064C255.183 63.5096 251.799 64.8153 249.239 63.466C246.593 62.095 245.855 58.6566 247.46 55.6534C249.087 52.672 252.45 51.3881 255.01 52.7156C257.634 54.0648 258.415 57.5685 256.854 60.5064Z" fill="#004F91"/>
<path d="M270.715 67.7984C270.715 67.7984 259.044 43.7513 237.373 49.9535C234.878 50.8675 233.316 50.3017 232.622 48.169C232.579 46.7109 233.012 45.2746 235.746 44.7741L246.289 42.1409C248.523 41.3792 250.193 40.2041 251.386 38.746L260.129 22.7291C264.641 17.6586 265.986 15.243 268.524 16.4617C270.129 17.4192 269.652 21.0099 266.55 25.9935C264.879 28.4743 264.728 30.1065 266.159 30.9117C267.634 31.6298 268.676 30.9117 270.389 27.9303C273.361 22.2504 276.268 20.64 277.83 21.4452C279.652 22.2939 279.284 24.8836 276.702 31.7386L268.372 46.428C267.786 47.8426 267.83 50.9546 268.979 53.1308C270.715 57.135 272.884 61.5962 274.338 64.9911C275.335 66.8626 275.184 67.929 273.578 68.6906C272.472 69.2129 271.648 68.9953 270.715 67.7984Z" fill="#004F91"/>
<path d="M23.0933 423.536H17.8853V440H13.9933V423.536H8.78531V420.064H23.0933V423.536ZM40.7974 440H36.9054V431.656H30.1574V440H26.2654V420.064H30.1574V428.212H36.9054V420.064H40.7974V440ZM58.5654 440H45.4334V420.064H58.5654V423.536H49.3254V428.212H57.1934V431.684H49.3254V436.528H58.5654V440ZM91.2383 420.064L85.8903 440H82.6423L78.9743 427.904L75.3063 440H72.0583L66.7383 420.064H70.7983L73.8783 432.636L77.5183 420.064H80.4303L84.0703 432.636L87.1783 420.064H91.2383ZM107.505 430.032C107.505 433.476 107.533 435.968 105.517 437.984C104.117 439.384 102.409 440.168 100.141 440.168C97.873 440.168 96.137 439.384 94.737 437.984C92.721 435.968 92.777 433.476 92.777 430.032C92.777 426.588 92.721 424.096 94.737 422.08C96.137 420.68 97.873 419.896 100.141 419.896C102.409 419.896 104.117 420.68 105.517 422.08C107.533 424.096 107.505 426.588 107.505 430.032ZM103.613 430.032C103.613 426.196 103.389 425.272 102.633 424.432C102.073 423.788 101.205 423.368 100.141 423.368C99.077 423.368 98.181 423.788 97.621 424.432C96.865 425.272 96.669 426.196 96.669 430.032C96.669 433.868 96.865 434.792 97.621 435.632C98.181 436.276 99.077 436.696 100.141 436.696C101.205 436.696 102.073 436.276 102.633 435.632C103.389 434.792 103.613 433.868 103.613 430.032ZM126.561 440H122.053L118.161 432.048H115.361V440H111.469V420.064H119.281C123.341 420.064 125.749 422.836 125.749 426.168C125.749 428.968 124.041 430.704 122.109 431.404L126.561 440ZM121.857 426.168C121.857 424.628 120.737 423.536 119.029 423.536H115.361V428.8H119.029C120.737 428.8 121.857 427.708 121.857 426.168ZM142.725 440H129.789V420.064H133.681V436.528H142.725V440ZM160.37 429.948C160.37 432.944 160.594 435.856 158.354 438.096C157.038 439.412 155.162 440 153.09 440H145.894V420.064H153.09C155.162 420.064 157.038 420.652 158.354 421.968C160.594 424.208 160.37 426.952 160.37 429.948ZM156.478 429.948C156.478 426.924 156.366 425.664 155.638 424.768C154.966 423.956 154.07 423.536 152.726 423.536H149.786V436.528H152.726C154.07 436.528 154.966 436.108 155.638 435.296C156.366 434.4 156.478 432.972 156.478 429.948ZM185.167 426.28C185.167 429.668 182.703 432.496 178.587 432.496H174.751V440H170.859V420.064H178.587C182.703 420.064 185.167 422.892 185.167 426.28ZM181.275 426.28C181.275 424.656 180.155 423.536 178.391 423.536H174.751V428.996H178.391C180.155 428.996 181.275 427.904 181.275 426.28ZM201.573 440H188.441V420.064H201.573V423.536H192.333V428.212H200.201V431.684H192.333V436.528H201.573V440ZM220.794 440H216.734L215.558 436.472H208.474L207.27 440H203.21L210.462 420.064H213.514L220.794 440ZM214.522 433.196L212.086 425.944L209.566 433.196H214.522ZM236.976 433.868C236.304 437.928 233.448 440.168 229.64 440.168C227.512 440.168 225.72 439.44 224.264 437.984C223.396 437.116 222.864 436.108 222.64 434.988C222.416 433.868 222.304 432.216 222.304 430.032C222.304 427.848 222.416 426.196 222.64 425.076C222.864 423.928 223.396 422.948 224.264 422.08C225.72 420.624 227.512 419.896 229.64 419.896C233.476 419.896 236.304 422.136 236.976 426.196H233.028C232.608 424.488 231.544 423.368 229.668 423.368C228.604 423.368 227.764 423.704 227.176 424.404C226.364 425.272 226.196 426.168 226.196 430.032C226.196 433.896 226.364 434.792 227.176 435.66C227.764 436.36 228.604 436.696 229.668 436.696C231.544 436.696 232.608 435.576 233.028 433.868H236.976ZM253.472 440H240.34V420.064H253.472V423.536H244.232V428.212H252.1V431.684H244.232V436.528H253.472V440ZM273.421 440H268.885L263.761 430.928L261.185 434.008V440H257.293V420.064H261.185V428.744L268.213 420.064H272.945L266.337 427.988L273.421 440ZM289.046 440H275.914V420.064H289.046V423.536H279.806V428.212H287.674V431.684H279.806V436.528H289.046V440ZM305.999 440H292.867V420.064H305.999V423.536H296.759V428.212H304.627V431.684H296.759V436.528H305.999V440ZM324.128 426.28C324.128 429.668 321.664 432.496 317.548 432.496H313.712V440H309.82V420.064H317.548C321.664 420.064 324.128 422.892 324.128 426.28ZM320.236 426.28C320.236 424.656 319.116 423.536 317.352 423.536H313.712V428.996H317.352C319.116 428.996 320.236 427.904 320.236 426.28ZM340.534 440H327.402V420.064H340.534V423.536H331.294V428.212H339.162V431.684H331.294V436.528H340.534V440ZM359.447 440H354.939L351.047 432.048H348.247V440H344.355V420.064H352.167C356.227 420.064 358.635 422.836 358.635 426.168C358.635 428.968 356.927 430.704 354.995 431.404L359.447 440ZM354.743 426.168C354.743 424.628 353.623 423.536 351.915 423.536H348.247V428.8H351.915C353.623 428.8 354.743 427.708 354.743 426.168ZM375.556 434.12C375.556 437.984 372.336 440.168 368.164 440.168C365.14 440.168 362.844 439.524 360.884 437.536L363.404 435.016C364.664 436.276 366.372 436.696 368.22 436.696C370.516 436.696 371.748 435.828 371.748 434.232C371.748 433.532 371.552 432.944 371.132 432.552C370.74 432.188 370.292 431.992 369.368 431.852L366.96 431.516C365.252 431.264 363.992 430.732 363.096 429.864C362.144 428.912 361.668 427.624 361.668 425.944C361.668 422.388 364.3 419.896 368.612 419.896C371.356 419.896 373.344 420.568 375.052 422.22L372.588 424.656C371.328 423.452 369.816 423.284 368.5 423.284C366.428 423.284 365.42 424.432 365.42 425.804C365.42 426.308 365.588 426.84 366.008 427.232C366.4 427.596 367.044 427.904 367.856 428.016L370.208 428.352C372.028 428.604 373.176 429.108 374.016 429.892C375.08 430.9 375.556 432.356 375.556 434.12Z" fill="#004F91"/>
<path d="M138.197 476H134.305V464.38L130.497 471.94H127.865L124.029 464.38V476H120.137V456.064H123.973L129.181 466.844L134.361 456.064H138.197V476ZM156.888 466.032C156.888 469.476 156.916 471.968 154.9 473.984C153.5 475.384 151.792 476.168 149.524 476.168C147.256 476.168 145.52 475.384 144.12 473.984C142.104 471.968 142.16 469.476 142.16 466.032C142.16 462.588 142.104 460.096 144.12 458.08C145.52 456.68 147.256 455.896 149.524 455.896C151.792 455.896 153.5 456.68 154.9 458.08C156.916 460.096 156.888 462.588 156.888 466.032ZM152.996 466.032C152.996 462.196 152.772 461.272 152.016 460.432C151.456 459.788 150.588 459.368 149.524 459.368C148.46 459.368 147.564 459.788 147.004 460.432C146.248 461.272 146.052 462.196 146.052 466.032C146.052 469.868 146.248 470.792 147.004 471.632C147.564 472.276 148.46 472.696 149.524 472.696C150.588 472.696 151.456 472.276 152.016 471.632C152.772 470.792 152.996 469.868 152.996 466.032ZM174.438 456.064L167.83 476H164.918L158.338 456.064H162.37L166.374 469.056L170.378 456.064H174.438ZM189.979 476H176.847V456.064H189.979V459.536H180.739V464.212H188.607V467.684H180.739V472.528H189.979V476ZM211.861 476H207.969V464.38L204.161 471.94H201.529L197.693 464.38V476H193.801V456.064H197.637L202.845 466.844L208.025 456.064H211.861V476ZM229.628 476H216.496V456.064H229.628V459.536H220.388V464.212H228.256V467.684H220.388V472.528H229.628V476ZM248.709 476H245.237L237.341 463.764V476H233.449V456.064H236.921L244.817 468.272V456.064H248.709V476ZM266.179 459.536H260.971V476H257.079V459.536H251.871V456.064H266.179V459.536Z" fill="#96B522"/>
</svg>
