<svg width="498" height="272" viewBox="0 0 498 272" fill="none" xmlns="http://www.w3.org/2000/svg">
<path d="M147.994 48.1115L131.965 107.864H122.23L111.236 71.6098L100.242 107.864H90.5074L74.5621 48.1115H86.7309L95.9623 85.7927L106.872 48.1115H115.6L126.51 85.7927L135.826 48.1115H147.994ZM194.799 107.864H155.44V48.1115H194.799V58.5179H167.105V72.5329H190.687V82.9393H167.105V97.4579H194.799V107.864ZM271.915 107.864H259.746L256.221 97.29H234.989L231.38 107.864H219.212L240.948 48.1115H250.095L271.915 107.864ZM253.116 87.4711L245.815 65.7352L238.262 87.4711H253.116ZM324.509 107.864H310.997L299.332 84.0303H290.94V107.864H279.275V48.1115H302.689C314.858 48.1115 322.075 56.4198 322.075 66.4066C322.075 74.7988 316.956 80.002 311.165 82.1001L324.509 107.864ZM310.41 66.4066C310.41 61.7908 307.053 58.5179 301.934 58.5179H290.94V74.2953H301.934C307.053 74.2953 310.41 71.0223 310.41 66.4066ZM373.544 107.864H334.185V48.1115H373.544V58.5179H345.85V72.5329H369.432V82.9393H345.85V97.4579H373.544V107.864Z" fill="#00508C"/>
<path d="M163.026 176.935C163.026 196.548 163.185 210.739 151.705 222.22C143.732 230.192 134.006 234.657 121.09 234.657C108.174 234.657 98.2881 230.192 90.3155 222.22C78.8349 210.739 79.1538 196.548 79.1538 176.935C79.1538 157.322 78.8349 143.131 90.3155 131.651C98.2881 123.678 108.174 119.213 121.09 119.213C134.006 119.213 143.732 123.678 151.705 131.651C163.185 143.131 163.026 157.322 163.026 176.935ZM140.862 176.935C140.862 155.09 139.586 149.828 135.281 145.045C132.092 141.377 127.149 138.985 121.09 138.985C115.031 138.985 109.928 141.377 106.739 145.045C102.434 149.828 101.318 155.09 101.318 176.935C101.318 198.78 102.434 204.042 106.739 208.826C109.928 212.493 115.031 214.885 121.09 214.885C127.149 214.885 132.092 212.493 135.281 208.826C139.586 204.042 140.862 198.78 140.862 176.935ZM272.499 233.7H252.727L207.761 164.019V233.7H185.597V120.17H205.369L250.335 189.691V120.17H272.499V233.7ZM373.741 233.7H298.958V120.17H373.741V139.942H321.122V166.571H365.928V186.343H321.122V213.928H373.741V233.7Z" fill="#359138"/>
<path d="M183.816 179.705C183.816 179.705 181.242 186.056 183.158 186.965C185.089 187.888 188.725 187.79 190.236 186.335C191.747 184.867 192.963 184.979 194.432 185.258C195.901 185.538 197.411 188.098 197.215 190.42C197.215 190.42 198.642 190.895 200.223 192.336C200.223 192.336 196.111 191.469 194.32 192.042C192.516 192.602 183.34 200.518 174.249 199.805C165.157 199.078 159.898 197.511 156.597 193.133C153.296 188.769 153.492 186.447 150.135 186.293C146.764 186.139 142.078 185.118 140.428 183.971C138.778 182.811 144.177 185.272 147.282 184.209C153.072 182.209 165.535 184.195 169.549 185.454C169.549 185.454 166.08 171.873 169.06 165.956C172.053 160.04 173.577 150.626 168.654 145.325C168.654 145.325 179.746 156.571 183.354 159.774C186.949 162.977 191.383 168.152 188.166 172.992C184.921 177.831 183.816 179.705 183.816 179.705Z" fill="#E4EBB7"/>
<path d="M67.3992 138.709C67.3992 138.709 68.9797 140.304 68.672 141.912C68.672 141.912 65.7767 139.982 65.0074 140.122C64.2381 140.262 54.7549 150.318 47.4816 150.095C40.2083 149.871 40.4881 149.535 38.4879 151.815C36.4878 154.109 32.7113 158.473 32.7113 158.473C32.7113 158.473 26.9206 158.934 25.0883 154.515C25.0883 154.515 33.1868 151.312 36.8095 146.584C40.4321 141.87 42.4742 140.611 42.4742 140.611C42.4742 140.611 31.6902 141.199 28.669 141.954C21.6195 143.717 19.3256 143.171 7.12891 133.632C7.12891 133.632 15.3393 137.031 25.466 134.345C32.3196 132.527 44.4324 135.198 44.4324 135.198C44.4324 135.198 51.398 123.869 54.3073 108.945C57.2166 94.0205 56.5872 92.2021 56.5872 92.2021C56.5872 92.2021 67.5251 106.329 65.3851 115.63C63.245 124.932 57.5663 130.96 58.7972 132.695C60.028 134.443 60.8672 134.331 62.6296 133.128C64.0703 132.135 65.2872 131.744 67.3852 133.45C69.5812 135.24 67.3992 138.709 67.3992 138.709Z" fill="#E4EBB7"/>
<path d="M67.3061 223.835C67.3061 223.835 66.6207 220.94 70.1315 219.639C73.866 218.254 76.1319 221.989 76.1319 221.989C76.1319 221.989 78.7195 221.429 81.0134 221.527C81.0134 221.527 76.4117 224.003 76.1179 225.164C75.7403 226.702 75.8522 233.178 69.3062 239.738C64.9423 244.116 45.0946 251.347 36.2548 248.284C36.2548 248.284 31.4712 248.144 29.1773 252.592C29.1773 252.592 27.6947 246.522 19.0087 242.172C19.0087 242.172 20.813 239.752 32.716 243.095C38.7864 244.801 41.1782 238.927 40.2271 236.661C39.3739 234.619 28.9116 227.653 23.8762 225.024C18.8409 222.408 -0.601142 217.359 0.0142896 183.846C0.0142896 183.846 21.4984 210.169 42.9546 209.82C42.9546 209.82 38.5766 198.84 39.4578 194.406C40.339 189.986 44.7729 179.594 40.6467 167.243C40.6467 167.243 55.3751 180.964 58.9978 197.861C63.124 217.051 58.8579 226.185 62.3826 227.29C62.3966 227.304 67.0124 228.017 67.3061 223.835Z" fill="#E4EBB7"/>
<path d="M284.358 242.927C284.358 242.927 283.785 248.06 285.365 248.326C286.946 248.591 289.575 247.794 290.372 246.423C291.17 245.053 292.079 244.885 293.198 244.787C294.317 244.689 295.939 246.228 296.275 247.962C296.275 247.962 297.394 248.018 298.849 248.731C298.849 248.731 295.702 248.941 294.499 249.724C293.31 250.494 288.274 258.117 281.519 259.459C274.777 260.802 270.637 260.732 267.35 258.242C264.063 255.739 263.727 254.018 261.265 254.606C258.79 255.179 255.181 255.403 253.74 254.9C252.3 254.396 256.72 255.095 258.762 253.669C262.552 251.039 272.007 249.934 275.169 250.018C275.169 250.018 269.867 240.884 270.819 235.975C271.77 231.066 270.958 223.932 266.315 221.093C266.315 221.093 276.665 226.981 279.938 228.576C283.197 230.17 287.477 233.01 286.12 237.178C284.792 241.346 284.358 242.927 284.358 242.927Z" fill="#E4EBB7"/>
<path d="M391.806 155.34C391.806 155.34 390.994 158.962 389.82 158.781C388.659 158.585 387.036 157.424 386.812 156.305C386.589 155.186 386.001 154.864 385.246 154.529C384.49 154.193 383.008 154.864 382.364 155.969C382.364 155.969 381.581 155.745 380.406 155.885C380.406 155.885 382.532 156.767 383.176 157.578C383.819 158.389 385.498 164.753 389.848 167.243C394.198 169.733 397.079 170.67 399.932 169.747C402.8 168.823 403.443 167.732 405.01 168.697C406.59 169.677 409.024 170.67 410.143 170.67C411.262 170.67 408.045 170.096 406.968 168.656C404.968 165.97 398.687 163.005 396.477 162.319C396.477 162.319 402.31 157.354 402.814 153.787C403.317 150.221 405.569 145.563 409.457 144.724C409.457 144.724 400.897 146.29 398.268 146.612C395.638 146.934 392.002 147.857 391.946 151.004C391.89 154.165 391.806 155.34 391.806 155.34Z" fill="#E4EBB7"/>
<path d="M435.137 58.0739C435.137 58.0739 436.536 60.1999 435.892 60.6754C435.249 61.151 433.906 61.4028 433.249 60.9832C432.592 60.5636 432.158 60.7034 431.626 60.9132C431.109 61.1231 430.731 62.1721 430.969 63.0113C430.969 63.0113 430.479 63.291 430.004 63.9344C430.004 63.9344 431.445 63.305 432.158 63.3749C432.857 63.4449 436.774 65.6409 440.075 64.6897C443.362 63.7386 445.18 62.7595 446.089 60.9132C446.998 59.067 446.76 58.2417 447.991 57.92C449.222 57.6123 450.873 56.8849 451.39 56.3394C451.922 55.794 450.117 57.1087 448.9 56.9409C446.635 56.6472 442.201 58.3256 440.816 59.0809C440.816 59.0809 441.138 53.8638 439.627 51.9195C438.116 49.9753 436.9 46.6604 438.326 44.3525C438.326 44.3525 435.039 49.304 433.934 50.7446C432.843 52.1853 431.57 54.4093 433.095 55.9339C434.592 57.4724 435.137 58.0739 435.137 58.0739Z" fill="#E4EBB7"/>
<path d="M372.054 204.071C372.054 204.071 370.711 205.903 371.257 206.351C371.802 206.798 372.977 207.064 373.579 206.715C374.18 206.365 374.572 206.505 375.019 206.715C375.467 206.924 375.747 207.875 375.495 208.603C375.495 208.603 375.915 208.869 376.306 209.47C376.306 209.47 375.061 208.855 374.432 208.897C373.802 208.938 370.208 210.729 367.34 209.764C364.473 208.785 362.907 207.861 362.193 206.183C361.494 204.505 361.732 203.777 360.669 203.456C359.592 203.134 358.165 202.421 357.731 201.917C357.284 201.413 358.836 202.644 359.913 202.546C361.927 202.379 365.788 204.029 366.977 204.756C366.977 204.756 366.963 200.099 368.403 198.448C369.844 196.784 371.103 193.874 369.956 191.776C369.956 191.776 372.614 196.294 373.509 197.623C374.404 198.952 375.411 200.98 373.984 202.267C372.558 203.553 372.054 204.071 372.054 204.071Z" fill="#E4EBB7"/>
<path d="M378.601 231.989C378.601 231.989 379.552 230.548 378.069 229.177C376.572 227.793 375.328 229.807 373.859 228.254C372.376 226.716 367.201 224.282 361.397 224.408C355.592 224.534 351.927 224.086 349.116 221.512C346.29 218.939 343.367 222.995 343.367 222.995C343.367 222.995 349.759 226.1 352.179 226.38C354.599 226.66 358.753 228.282 356.459 232.884C354.165 237.486 349.074 235.947 347.899 239.626C347.899 239.626 360.739 242.927 364.614 238.101C368.698 233.024 368.502 233.457 368.502 233.457C368.502 233.457 371.663 234.968 376.363 232.814C376.363 232.814 378.615 233.08 379.454 234.073C379.44 234.073 379.202 232.884 378.601 231.989Z" fill="#E4EBB7"/>
<path d="M364.291 128.374C364.291 128.374 363.717 127.506 364.613 126.681C365.522 125.856 366.277 127.059 367.172 126.122C368.067 125.199 371.229 123.73 374.753 123.814C378.292 123.898 380.516 123.618 382.236 122.066C383.957 120.513 385.733 122.961 385.733 122.961C385.733 122.961 381.845 124.835 380.376 125.003C378.907 125.171 376.376 126.15 377.775 128.919C379.173 131.689 382.264 130.765 382.978 132.975C382.978 132.975 375.159 134.962 372.809 132.066C370.319 129.003 370.445 129.269 370.445 129.269C370.445 129.269 368.529 130.178 365.662 128.891C365.662 128.891 364.291 129.045 363.773 129.647C363.787 129.619 363.927 128.905 364.291 128.374Z" fill="#E4EBB7"/>
<path d="M424.394 136.821C424.394 136.821 423.807 137.717 424.101 138.444C424.101 138.444 425.276 137.269 425.653 137.269C426.031 137.269 431.416 141.087 434.801 140.304C438.186 139.521 438.032 139.381 439.179 140.262C440.326 141.157 442.508 142.85 442.508 142.85C442.508 142.85 445.263 142.528 445.711 140.276C445.711 140.276 441.613 139.535 439.473 137.647C437.332 135.772 436.255 135.381 436.255 135.381C436.255 135.381 441.361 134.653 442.857 134.723C446.326 134.891 447.347 134.416 452.173 128.807C452.173 128.807 448.648 131.171 443.641 130.863C440.256 130.653 434.829 133.045 434.829 133.045C434.829 133.045 430.507 128.387 427.737 121.659C424.968 114.932 425.094 114.022 425.094 114.022C425.094 114.022 421.289 121.673 423.164 125.828C425.038 129.996 428.255 132.276 427.849 133.213C427.444 134.15 427.038 134.178 426.101 133.772C425.332 133.45 424.73 133.367 423.905 134.374C423.052 135.409 424.394 136.821 424.394 136.821Z" fill="#E4EBB7"/>
<path d="M323.995 214.911C323.995 214.911 324.163 215.848 323.66 216.338C323.66 216.338 323.114 214.967 322.807 214.827C322.499 214.687 316.75 215.904 314.274 214.058C311.785 212.211 311.967 212.155 310.708 212.477C309.449 212.785 307.071 213.4 307.071 213.4C307.071 213.4 304.931 212.155 305.379 210.169C305.379 210.169 308.987 211.009 311.393 210.239C313.799 209.47 314.82 209.526 314.82 209.526C314.82 209.526 310.904 207.12 309.673 206.645C306.777 205.554 306.12 204.812 304.176 198.518C304.176 198.518 306.218 201.693 310.4 203.218C313.239 204.253 316.806 208.127 316.806 208.127C316.806 208.127 321.981 205.861 326.625 201.357C331.269 196.854 331.479 196.07 331.479 196.07C331.479 196.07 331.87 203.651 328.863 206.379C325.87 209.106 322.415 209.834 322.415 210.743C322.415 211.652 322.737 211.82 323.646 211.82C324.387 211.834 324.905 211.988 325.226 213.093C325.59 214.24 323.995 214.911 323.995 214.911Z" fill="#E4EBB7"/>
<path d="M364.783 20.7568C364.783 20.7568 364.741 21.7359 364.126 22.1136C364.126 22.1136 363.888 20.617 363.608 20.4211C363.342 20.2113 357.328 20.1554 355.258 17.7636C353.188 15.3718 353.369 15.3578 352.041 15.3998C350.712 15.4417 348.208 15.5117 348.208 15.5117C348.208 15.5117 346.348 13.7913 347.229 11.903C347.229 11.903 350.656 13.5395 353.23 13.3157C355.803 13.0779 356.81 13.3577 356.81 13.3577C356.81 13.3577 353.439 10.0847 352.306 9.34337C349.663 7.60898 349.159 6.71379 348.614 0C348.614 0 349.957 3.62267 353.803 6.07041C356.405 7.73487 359.118 12.3925 359.118 12.3925C359.118 12.3925 364.797 11.2736 370.434 7.80479C376.07 4.33599 376.462 3.59469 376.462 3.59469C376.462 3.59469 375.175 11.2596 371.567 13.3157C367.958 15.3858 364.363 15.3438 364.167 16.253C363.972 17.1622 364.251 17.3999 365.161 17.5957C365.902 17.7636 366.391 18.0433 366.461 19.2182C366.531 20.4351 364.783 20.7568 364.783 20.7568Z" fill="#E4EBB7"/>
<path d="M476.661 42.8563C476.661 42.8563 476.479 43.8494 477.011 44.3669C477.011 44.3669 477.598 42.9123 477.92 42.7724C478.242 42.6325 484.312 43.9613 486.956 42.0311C489.599 40.1009 489.417 40.0449 490.732 40.3946C492.061 40.7303 494.565 41.4017 494.565 41.4017C494.565 41.4017 496.831 40.1009 496.397 38.0028C496.397 38.0028 492.579 38.856 490.033 38.0308C487.487 37.1916 486.41 37.2475 486.41 37.2475C486.41 37.2475 490.564 34.7298 491.879 34.2543C494.942 33.1213 495.656 32.338 497.768 25.7082C497.768 25.7082 495.572 29.0511 491.138 30.6176C488.131 31.6806 484.312 35.7509 484.312 35.7509C484.312 35.7509 478.857 33.3032 473.99 28.4916C469.122 23.6801 468.898 22.8408 468.898 22.8408C468.898 22.8408 468.409 30.8554 471.57 33.7787C474.717 36.702 478.354 37.4853 478.34 38.4504C478.326 39.4155 477.99 39.5834 477.025 39.5694C476.242 39.5694 475.682 39.7232 475.333 40.8981C474.983 42.129 476.661 42.8563 476.661 42.8563Z" fill="#E4EBB7"/>
<path d="M399.302 202.211C399.302 202.211 399.623 201.05 401.12 201.288C402.7 201.54 402.77 203.288 402.77 203.288C402.77 203.288 403.791 203.596 404.575 204.085C404.575 204.085 402.463 204.043 402.141 204.407C401.707 204.869 400.476 207.176 396.882 208.197C394.49 208.883 386.098 207.526 383.58 204.715C383.58 204.715 381.93 203.736 380.251 204.841C380.251 204.841 380.923 202.407 378.727 199.19C378.727 199.19 379.846 198.7 383.37 202.197C385.175 203.987 387.161 202.393 387.273 201.414C387.371 200.533 385.063 196.029 383.804 194.112C382.545 192.196 376.698 186.615 383.496 174.95C383.496 174.95 385.888 188.42 393.497 192.504C393.497 192.504 394.112 187.79 395.301 186.406C396.476 185.021 400.085 182.237 401.05 177.09C401.05 177.09 403.54 184.811 401.498 191.455C399.176 199.008 395.889 201.386 396.91 202.463C396.896 202.463 398.378 203.61 399.302 202.211Z" fill="#E4EBB7"/>
</svg>
