<svg width="24" height="24" viewBox="0 0 24 24" fill="none" xmlns="http://www.w3.org/2000/svg">
<path d="M12 0C5.3677 0 0 5.36765 0 12C0 18.6323 5.3677 24 12 24C18.6323 24 24 18.6323 24 12C24 5.36765 18.6323 0 12 0ZM10.5949 21.7517C8.51524 21.4426 6.66043 20.5152 5.22717 19.1382L10.5949 15.007V21.7517ZM10.5949 11.4098L3.45671 16.8899C2.64172 15.4567 2.16395 13.7705 2.16395 12C2.16395 7.02574 5.81735 2.92268 10.5949 2.24821V11.4098ZM13.4333 21.7517V15.007L18.801 19.1382C17.3677 20.5152 15.5129 21.4426 13.4333 21.7517ZM13.4333 11.4098V2.24821C18.2108 2.95079 21.8642 7.05384 21.8642 12C21.8642 13.7705 21.3865 15.4567 20.5715 16.8899L13.4333 11.4098Z" fill="#6CA357"/>
</svg>
