<svg width="16" height="16" viewBox="0 0 16 16" fill="none" xmlns="http://www.w3.org/2000/svg">
<path d="M8.99349 2.34297V1.67549C11.9562 1.83017 14.1697 4.04171 14.3248 6.9995H13.6573C13.5075 4.39305 11.6028 2.49233 8.99349 2.34297Z" fill="white" stroke="white" stroke-width="0.666667"/>
<path d="M5.10186 10.8989C7.67931 13.4757 10.9148 13.6667 11.8035 13.6667C11.932 13.6667 12.008 13.6628 12.0227 13.6619L12.0242 13.6618C12.1017 13.6575 12.1749 13.6259 12.2312 13.5728L13.4617 12.1365L13.4619 12.1362C13.5184 12.0704 13.547 11.9852 13.5416 11.8986C13.5363 11.812 13.4974 11.731 13.4332 11.6726L5.10186 10.8989ZM5.10186 10.8989C2.14549 7.9412 2.32974 4.11918 2.33826 3.97729L2.33832 3.97627C2.34275 3.89836 2.37437 3.8246 2.42747 3.76773L3.86243 2.5371C3.86246 2.53707 3.86249 2.53705 3.86252 2.53702C3.92837 2.48063 4.01361 2.45211 4.10015 2.45752C4.18672 2.46293 4.26778 2.50189 4.3261 2.5661L4.32625 2.56627L6.78958 5.27493L6.78973 5.2751C6.84803 5.33911 6.87913 5.4233 6.87645 5.50983C6.87378 5.59637 6.83754 5.67848 6.7754 5.73877L6.775 5.73916L5.13566 7.33516L5.0077 7.45974L5.04054 7.63529C5.12193 8.07041 5.3888 8.9093 6.23905 9.76027L6.23945 9.76066C7.08977 10.6088 7.92634 10.8754 8.36299 10.9587L8.53934 10.9924L8.6645 10.8637L10.2598 9.22304L10.2599 9.22302C10.3203 9.16089 10.4024 9.12467 10.489 9.12199C10.5756 9.11932 10.6598 9.15037 10.7239 9.2086C10.7239 9.20862 10.724 9.20864 10.724 9.20867L13.4332 11.6726L5.10186 10.8989ZM2.19885 3.52466C2.0836 3.64034 2.0148 3.7943 2.00552 3.95733C1.99552 4.124 1.80485 8.072 4.86619 11.1347L2.19885 3.52466ZM9.00019 4.34388C9.84563 4.39884 10.4745 4.66654 10.9041 5.09612C11.3336 5.52569 11.6013 6.15455 11.6563 7H10.9886C10.9456 6.41103 10.7796 5.92315 10.4283 5.57188C10.077 5.22061 9.58915 5.05457 9.00019 5.0116V4.34388Z" fill="white" stroke="white" stroke-width="0.666667"/>
</svg>
