<svg width="38" height="39" viewBox="0 0 38 39" fill="none" xmlns="http://www.w3.org/2000/svg">
<path fill-rule="evenodd" clip-rule="evenodd" d="M18.4833 0.0832938C18.2208 0.157513 17.8341 0.40095 17.6239 0.624387C17.2784 0.991731 17.2367 1.18595 17.1888 2.65251L17.1356 4.27439L16.4261 4.98407L15.7164 5.69376H8.5725H1.42875L0.897812 6.05111C-0.0992188 6.72204 -0.199531 8.14923 0.691563 8.98657C1.03953 9.3136 1.27578 9.37314 2.41062 9.42079C3.27484 9.45689 3.72625 9.53814 3.72625 9.65751C3.72625 9.75751 2.88781 12.3522 1.86312 15.4236L0 21.0081L0.142969 22.0175C0.730156 26.1636 4.21672 29.0728 7.72891 28.3472C10.1395 27.8491 11.9731 26.1367 12.8761 23.5403C13.5017 21.7413 13.4434 21.2233 11.9459 15.2675C11.2064 12.3261 10.6012 9.81236 10.6012 9.68157C10.6012 9.47845 10.9719 9.44376 13.1462 9.44376H15.6911L16.4325 10.1964L17.1739 10.9491L17.1297 19.6886L17.0856 28.4281L16.7172 29.2428C16.3023 30.1602 15.1144 31.3597 14.2308 31.7531C13.7731 31.9569 12.9441 32.0313 10.3669 32.0997C6.80594 32.1944 6.57375 32.2475 6.06219 33.0866C5.8175 33.488 5.75859 33.8749 5.75813 35.0847C5.7575 36.3888 5.80422 36.6545 6.11453 37.1159C6.31844 37.4194 6.70359 37.7269 7.01297 37.8334C7.78828 38.1005 30.2892 38.1005 31.0645 37.8334C31.3739 37.7269 31.7591 37.4194 31.963 37.1159C32.2733 36.6545 32.32 36.3888 32.3194 35.0847C32.3189 33.8749 32.26 33.488 32.0153 33.0866C31.5038 32.2475 31.2716 32.1944 27.7106 32.0997C25.1334 32.0313 24.3044 31.9569 23.8467 31.7531C22.9631 31.3597 21.7752 30.1602 21.3603 29.2428L20.9919 28.4281L20.9478 19.6886L20.9036 10.9491L21.645 10.1964L22.3864 9.44376H25.4659H28.5456L26.6708 15.0297C25.0881 19.7445 24.7984 20.7555 24.8127 21.5128C24.8591 23.9947 26.5222 26.6883 28.6816 27.7794C31.5766 29.242 34.8213 28.2475 36.7238 25.3144C37.0542 24.805 37.4623 23.942 37.6308 23.3967C38.1764 21.6306 38.1131 21.1133 36.6381 15.2675C35.8959 12.3261 35.2887 9.82111 35.2887 9.70095C35.2887 9.54892 35.5505 9.46079 36.1494 9.41111C36.77 9.35954 37.1186 9.23767 37.3995 8.97361C38.2773 8.14892 38.1697 6.7172 37.1797 6.05111L36.6488 5.69376H29.505H22.3611L21.6375 4.97001L20.9138 4.24642L20.9131 2.82157C20.9127 1.68657 20.8508 1.29564 20.6091 0.899075C20.148 0.142825 19.3527 -0.162331 18.4833 0.0832938ZM6.93281 12.1167C6.80047 12.4674 4.03875 20.7611 4.03875 20.8077C4.03875 20.8309 5.23875 20.85 6.70547 20.85C9.1725 20.85 9.36609 20.8295 9.29016 20.5766C9.24484 20.4261 8.74344 18.4411 8.17562 16.1653C7.60781 13.8895 7.11438 11.9986 7.07906 11.9633C7.04375 11.928 6.97797 11.997 6.93281 12.1167ZM30.2395 16.3874L28.7509 20.85H31.4053C33.8606 20.85 34.0536 20.8295 33.9777 20.5766C33.9323 20.4261 33.4309 18.4411 32.8631 16.1653C32.2953 13.8895 31.8077 12.0044 31.7794 11.9761C31.7512 11.9478 31.0583 13.933 30.2395 16.3874Z" fill="white"/>
</svg>
