<svg width="21" height="21" viewBox="0 0 21 21" fill="none" xmlns="http://www.w3.org/2000/svg">
<circle cx="10.5" cy="10.5" r="10.5" fill="#005B94"/>
<circle cx="10.5" cy="10.5" r="7.5" fill="#E8F0CD"/>
<path fill-rule="evenodd" clip-rule="evenodd" d="M10.3781 6.01971C10.316 6.03727 10.2244 6.09488 10.1746 6.14775C10.0928 6.23468 10.0829 6.28063 10.0715 6.62767L10.0589 7.01146L9.89086 7.17939L9.72276 7.34733H8.03057H6.33843L6.21267 7.43189C5.9765 7.59065 5.95274 7.92837 6.16381 8.12651C6.24623 8.2039 6.3022 8.21799 6.57101 8.22926C6.77571 8.2378 6.88264 8.25703 6.88264 8.28528C6.88264 8.30894 6.68404 8.92293 6.44132 9.64972L6 10.9712L6.03387 11.2101C6.17295 12.1911 6.99882 12.8796 7.83075 12.7079C8.40176 12.59 8.83608 12.1848 9.04997 11.5704C9.19816 11.1447 9.18436 11.0221 8.82964 9.61278C8.65447 8.91675 8.51113 8.32192 8.51113 8.29097C8.51113 8.24291 8.59892 8.2347 9.11396 8.2347H9.71676L9.89238 8.4128L10.068 8.5909L10.0575 10.659L10.0471 12.727L9.95981 12.9198C9.86155 13.1369 9.58015 13.4207 9.37085 13.5138C9.26245 13.562 9.06607 13.5796 8.45561 13.5958C7.61213 13.6182 7.55713 13.6308 7.43595 13.8293C7.378 13.9243 7.36404 14.0159 7.36393 14.3022C7.36378 14.6107 7.37485 14.6736 7.44835 14.7828C7.49665 14.8546 7.58788 14.9274 7.66117 14.9526C7.84482 15.0158 13.1746 15.0158 13.3583 14.9526C13.4316 14.9274 13.5228 14.8546 13.5711 14.7828C13.6446 14.6736 13.6557 14.6107 13.6555 14.3022C13.6554 14.0159 13.6414 13.9243 13.5835 13.8293C13.4623 13.6308 13.4073 13.6182 12.5638 13.5958C11.9534 13.5796 11.757 13.562 11.6486 13.5138C11.4393 13.4207 11.1579 13.1369 11.0596 12.9198L10.9724 12.727L10.9619 10.659L10.9514 8.5909L11.1271 8.4128L11.3027 8.2347H12.0321H12.7616L12.3175 9.55651C11.9426 10.6722 11.874 10.9114 11.8774 11.0906C11.8884 11.6779 12.2823 12.3153 12.7938 12.5735C13.4796 12.9196 14.2481 12.6843 14.6988 11.9902C14.7771 11.8697 14.8737 11.6655 14.9136 11.5364C15.0429 11.1185 15.0279 10.9961 14.6785 9.61278C14.5027 8.91675 14.3589 8.32399 14.3589 8.29556C14.3589 8.25958 14.4209 8.23873 14.5627 8.22697C14.7097 8.21477 14.7923 8.18593 14.8589 8.12344C15.0668 7.9283 15.0413 7.58951 14.8068 7.43189L14.681 7.34733H12.9889H11.2967L11.1253 7.17606L10.9539 7.00484L10.9537 6.66768C10.9536 6.3991 10.9389 6.30659 10.8817 6.21275C10.7725 6.0338 10.5841 5.96159 10.3781 6.01971ZM7.64218 8.86721C7.61083 8.95018 6.95666 10.9127 6.95666 10.9238C6.95666 10.9293 7.24091 10.9338 7.58833 10.9338C8.1727 10.9338 8.21855 10.9289 8.20057 10.8691C8.18983 10.8335 8.07106 10.3638 7.93657 9.82523C7.80207 9.28671 7.68519 8.83926 7.67682 8.8309C7.66846 8.82254 7.65288 8.83889 7.64218 8.86721ZM13.1629 9.87777L12.8103 10.9338H13.439C14.0206 10.9338 14.0663 10.9289 14.0483 10.8691C14.0376 10.8335 13.9188 10.3638 13.7843 9.82523C13.6498 9.28671 13.5343 8.84062 13.5276 8.83393C13.5209 8.82724 13.3568 9.29699 13.1629 9.87777Z" fill="#128940"/>
</svg>
