<svg width="21" height="21" viewBox="0 0 21 21" fill="none" xmlns="http://www.w3.org/2000/svg">
<circle cx="10.5" cy="10.5" r="10.5" fill="#005B94"/>
<circle cx="10.5" cy="10.5" r="7.5" fill="#E8F0CD"/>
<path fill-rule="evenodd" clip-rule="evenodd" d="M8.11478 6.05425C7.97977 6.08587 7.70454 6.19765 7.50312 6.30261C7.18669 6.46754 7.09584 6.53773 6.83456 6.81912C6.2328 7.46724 5.9589 8.22822 6.00497 9.12395C6.03538 9.71556 6.18321 10.193 6.48264 10.6671C6.67193 10.9668 10.2906 14.9616 10.3994 14.9909C10.4447 15.0032 10.5193 15.003 10.5652 14.9906C10.696 14.9553 14.3088 10.9479 14.5129 10.6117C14.7073 10.2915 14.8348 9.96686 14.9204 9.57419C14.9934 9.23919 15.0283 8.55847 14.9725 8.55847C14.9519 8.55847 14.9351 8.51432 14.9351 8.46037C14.9351 8.29435 14.7315 7.69829 14.5778 7.41427C14.4889 7.25001 14.3117 7.01658 14.1242 6.81648C13.8604 6.53513 13.7648 6.46124 13.4553 6.29997C12.9847 6.05474 12.6375 5.97749 12.1314 6.00543C11.5795 6.03589 11.1187 6.21235 10.693 6.55624C10.5875 6.64148 10.4884 6.71122 10.4728 6.71122C10.4573 6.71122 10.3645 6.64314 10.2665 6.5599C10.0535 6.37883 9.66679 6.17322 9.37715 6.08697C9.0806 5.99864 8.42451 5.98164 8.11478 6.05425ZM12.1736 6.67752C12.1139 6.7441 12.1186 6.84456 12.1849 6.91589C12.2518 6.98774 12.6204 6.99807 12.6839 6.92988C12.7411 6.86835 12.7368 6.76785 12.6746 6.71239C12.5976 6.64359 12.2273 6.61784 12.1736 6.67752ZM13.3641 7.13345C13.2879 7.21537 13.3197 7.29273 13.5252 7.52623C13.7479 7.77934 13.9161 8.08908 14.0025 8.40511C14.0662 8.63831 14.0767 9.18344 14.0216 9.3967C13.9729 9.58549 14.0266 9.69848 14.1572 9.68227C14.2769 9.66741 14.3356 9.49117 14.3621 9.0674C14.4005 8.45378 14.1722 7.78892 13.7669 7.3334C13.5506 7.09044 13.4504 7.04067 13.3641 7.13345ZM6.0061 8.9543C6.0062 9.16165 6.01209 9.24164 6.01917 9.13209C6.02629 9.02258 6.02622 8.85293 6.01903 8.7551C6.01181 8.65731 6.00603 8.74696 6.0061 8.9543Z" fill="#128940"/>
</svg>
