<svg width="38" height="38" viewBox="0 0 38 38" fill="none" xmlns="http://www.w3.org/2000/svg">
<path fill-rule="evenodd" clip-rule="evenodd" d="M8.92906 0.229036C8.35905 0.362582 7.19696 0.83453 6.34653 1.27767C5.01047 1.97405 4.62686 2.27043 3.5237 3.45849C0.982916 6.19499 -0.173547 9.40806 0.0209985 13.19C0.149363 15.6879 0.773565 17.704 2.03781 19.7056C2.83702 20.9708 18.1159 37.8378 18.5752 37.9616C18.7663 38.0133 19.0814 38.0127 19.2753 37.9603C19.8274 37.8113 35.0815 20.8911 35.9434 19.4714C36.7643 18.1196 37.3026 16.7489 37.6639 15.091C37.972 13.6766 38.1194 10.8024 37.8837 10.8024C37.797 10.8024 37.7259 10.616 37.7259 10.3882C37.7259 9.68725 36.8663 7.17056 36.2174 5.97136C35.8419 5.27784 35.0941 4.29224 34.3021 3.44735C33.1884 2.25945 32.7845 1.94747 31.4778 1.26652C29.491 0.231106 28.0248 -0.0950395 25.8882 0.0229075C23.558 0.151519 21.6123 0.896607 19.8147 2.34858C19.3694 2.70847 18.9511 3.00294 18.8854 3.00294C18.8198 3.00294 18.4277 2.71548 18.0142 2.36402C17.1146 1.59951 15.482 0.731386 14.2591 0.367198C13.007 -0.00574355 10.2368 -0.0775305 8.92906 0.229036ZM26.0665 2.86064C25.8141 3.14174 25.8341 3.56594 26.114 3.86709C26.3964 4.17047 27.9529 4.21409 28.2207 3.92614C28.4623 3.66637 28.4443 3.24202 28.1818 3.00788C27.8563 2.71739 26.2929 2.60867 26.0665 2.86064ZM31.093 4.78568C30.7713 5.13156 30.9053 5.45818 31.7729 6.4441C32.7135 7.51279 33.4237 8.82055 33.7883 10.1549C34.0574 11.1395 34.1018 13.4412 33.8692 14.3416C33.6634 15.1388 33.8899 15.6158 34.4416 15.5474C34.947 15.4846 35.1949 14.7405 35.3067 12.9512C35.4686 10.3604 34.5049 7.55322 32.7934 5.62993C31.8805 4.60406 31.4574 4.39395 31.093 4.78568ZM0.0257362 12.4737C0.0261804 13.3492 0.0510537 13.6869 0.080961 13.2244C0.111016 12.762 0.11072 12.0457 0.0803688 11.6327C0.0498693 11.2198 0.0254401 11.5983 0.0257362 12.4737Z" fill="white"/>
</svg>
