<svg width="21" height="21" viewBox="0 0 21 21" fill="none" xmlns="http://www.w3.org/2000/svg">
<circle cx="10.5" cy="10.5" r="10.5" fill="#005B94"/>
<circle cx="10.5" cy="10.5" r="7.5" fill="#E8F0CD"/>
<path fill-rule="evenodd" clip-rule="evenodd" d="M6.51437 6.00755C6.50321 6.04077 6.47141 6.14948 6.44369 6.24914C6.39571 6.42168 6.38274 6.434 6.17291 6.50656C5.93612 6.58842 5.94149 6.62808 6.19545 6.67375C6.35472 6.70241 6.42702 6.79217 6.46963 7.01419C6.51433 7.24681 6.53653 7.2431 6.601 6.99205L6.66252 6.75247L6.90007 6.67004L7.13765 6.58762L6.90025 6.50898L6.66286 6.43034L6.59873 6.18874C6.56322 6.05498 6.52556 5.97409 6.51437 6.00755ZM8.05924 6.4706C8.02385 6.60348 7.98203 6.75714 7.96637 6.81206C7.94236 6.89613 7.89207 6.9246 7.64768 6.99241C7.48811 7.0367 7.35753 7.08337 7.35753 7.09617C7.35753 7.10894 7.48829 7.15553 7.64806 7.1997C7.89169 7.26698 7.94315 7.29589 7.96675 7.3786C7.98222 7.43288 8.02408 7.58597 8.05981 7.71884L8.12474 7.96044L8.20433 7.65845C8.24816 7.49235 8.29686 7.33531 8.31259 7.3095C8.32836 7.28365 8.46793 7.2307 8.62278 7.19185C8.77763 7.15295 8.89678 7.10813 8.88755 7.09223C8.87832 7.07632 8.75134 7.03215 8.60538 6.99406C8.45942 6.95597 8.32742 6.90427 8.31199 6.87914C8.29656 6.85402 8.24789 6.69746 8.20377 6.53125L8.1236 6.22901L8.05924 6.4706ZM10.099 6.41242C9.93264 6.4272 9.69442 6.46203 9.56963 6.48985C9.30161 6.54953 8.71882 6.76789 8.71882 6.8086C8.71882 6.82422 8.84743 6.87109 9.00458 6.91276C9.33621 7.0007 9.44122 7.06465 9.37379 7.13749C9.34925 7.16398 9.12891 7.24318 8.88415 7.31345L8.43916 7.44121L8.39385 7.63038C8.3689 7.73439 8.35468 7.81951 8.36224 7.81951C8.36977 7.81951 8.47912 7.74848 8.60523 7.66171C9.06773 7.34341 9.89211 7.05925 10.0215 7.17357C10.0727 7.21882 10.0801 7.43211 10.0798 8.86127L10.0795 10.4972L9.02092 11.685C8.43866 12.3383 7.92871 12.889 7.88768 12.9088C7.7902 12.9557 7.72285 12.8951 7.54127 12.5968C7.22265 12.0734 7.05503 11.4129 7.05503 10.6809C7.05503 9.86131 7.27703 9.15859 7.74486 8.4975L7.9776 8.16861L7.89453 7.82635C7.84881 7.63811 7.80139 7.47351 7.78914 7.46054C7.75488 7.42438 7.27495 7.97687 7.0936 8.26123C6.85779 8.63103 6.61136 9.21101 6.49913 9.66058C6.41374 10.0026 6.4007 10.1362 6.39983 10.6784C6.39839 11.5706 6.55887 12.214 6.96458 12.9428C7.2194 13.4006 7.90182 14.1273 8.33173 14.3986C9.01619 14.8306 9.62038 15.0015 10.4583 15C10.9704 14.9991 11.0921 14.9855 11.4225 14.892C11.8153 14.781 12.6399 14.3812 12.6746 14.2849C12.6854 14.2548 12.6626 14.1157 12.6239 13.9757C12.5417 13.6786 12.4431 13.616 12.2643 13.7476C12.087 13.8783 11.5467 14.1317 11.3036 14.1984C10.9872 14.2851 10.8485 14.2808 10.7993 14.183C10.7735 14.1315 10.7631 13.6797 10.7696 12.885C10.7792 11.7262 10.7832 11.6653 10.8511 11.6513C10.9023 11.6409 11.1179 11.8445 11.6119 12.3699C12.2786 13.0791 12.3051 13.1021 12.4218 13.0748C12.5473 13.0455 12.6024 12.953 12.6382 12.7118C12.6547 12.6003 12.5834 12.5099 11.7084 11.5323L10.7608 10.4735V8.89372C10.7608 7.06384 10.7535 7.10656 11.0582 7.15524C11.3421 7.20058 11.8314 7.39217 12.1481 7.58202C12.5309 7.81154 13.1038 8.40952 13.3289 8.81472C13.9798 9.98581 13.9867 11.3671 13.3476 12.5439C13.1248 12.9541 13.1333 13.0141 13.4266 13.1011C13.5514 13.1381 13.6802 13.1699 13.7129 13.1716C13.7873 13.1757 14.0544 12.686 14.21 12.2601C14.5369 11.3658 14.5601 10.2537 14.2713 9.32948C13.6892 7.46686 11.9461 6.24818 10.099 6.41242ZM9.14389 12.5008C8.50249 13.1843 8.34069 13.3782 8.34069 13.4634C8.34069 13.7507 9.80547 14.4144 10.0203 14.2245C10.0725 14.1784 10.0801 14.0108 10.0801 12.9082C10.0801 11.7294 10.0757 11.6448 10.0136 11.6448C9.97704 11.6448 9.58566 12.0299 9.14389 12.5008ZM12.8238 12.7521C12.7884 12.8849 12.7467 13.039 12.7311 13.0943C12.7071 13.1797 12.6588 13.207 12.4125 13.2742C12.2527 13.3178 12.1221 13.3657 12.1221 13.3806C12.1221 13.3955 12.1689 13.4195 12.226 13.4339C12.2832 13.4483 12.4175 13.4865 12.5244 13.5187L12.7189 13.5772L12.7845 13.8693C12.8206 14.0299 12.8617 14.1751 12.8758 14.1918C12.8899 14.2085 12.9328 14.0907 12.9711 13.9301C13.0094 13.7694 13.0549 13.6184 13.0722 13.5946C13.0895 13.5707 13.2316 13.5172 13.388 13.4757C13.5444 13.4343 13.6596 13.3883 13.644 13.3735C13.6284 13.3588 13.5002 13.3142 13.359 13.2745C13.2178 13.2348 13.0902 13.1826 13.0754 13.1586C13.0606 13.1346 13.0124 12.9789 12.9683 12.8127L12.8881 12.5105L12.8238 12.7521ZM14.4612 13.3162C14.4497 13.3381 14.4185 13.4422 14.3917 13.5474C14.3439 13.736 14.3399 13.7398 14.1119 13.8113L13.8806 13.8839L14.1074 13.9622L14.3341 14.0406L14.4063 14.2822L14.4785 14.5238L14.5413 14.2822C14.602 14.0488 14.6098 14.0388 14.7717 13.9869C15.0592 13.8947 15.061 13.8914 14.8564 13.8237C14.6145 13.7436 14.6122 13.7411 14.5405 13.4849C14.5084 13.3702 14.4728 13.2943 14.4612 13.3162Z" fill="#128940"/>
</svg>
