<svg width="38" height="35" viewBox="0 0 38 35" fill="none" xmlns="http://www.w3.org/2000/svg">
<path fill-rule="evenodd" clip-rule="evenodd" d="M2.12542 0.0292898C2.07933 0.158196 1.94792 0.580071 1.83339 0.96679C1.63511 1.63632 1.58151 1.68413 0.714482 1.9657C-0.263956 2.28335 -0.241768 2.43726 0.807607 2.61444C1.46573 2.72569 1.76448 3.07398 1.94058 3.93554C2.12526 4.83819 2.21698 4.82382 2.48339 3.8496L2.73761 2.91991L3.71917 2.60007L4.70089 2.28023L3.71995 1.97507L2.73901 1.66991L2.47401 0.732415C2.3273 0.213352 2.17167 -0.100554 2.12542 0.0292898ZM8.50902 1.82616C8.36277 2.34179 8.18995 2.93804 8.12527 3.15116C8.02605 3.47741 7.81824 3.58788 6.80839 3.85101C6.14902 4.02288 5.60948 4.20398 5.60948 4.25366C5.60948 4.30319 6.1498 4.48398 6.80995 4.65538C7.81667 4.91648 8.02933 5.02866 8.12683 5.3496C8.19074 5.56023 8.3637 6.15429 8.51136 6.66991L8.77964 7.60741L9.10855 6.43554C9.28964 5.79101 9.49089 5.18163 9.55589 5.08148C9.62105 4.98116 10.1978 4.77569 10.8376 4.62491C11.4775 4.47398 11.9698 4.30007 11.9317 4.23835C11.8935 4.17663 11.3689 4.00523 10.7657 3.85741C10.1626 3.7096 9.61714 3.50898 9.55339 3.41148C9.48964 3.31398 9.28855 2.70648 9.1062 2.06148L8.77495 0.888665L8.50902 1.82616ZM16.9376 1.60038C16.2501 1.65773 15.2657 1.79288 14.7501 1.90085C13.6426 2.13241 11.2345 2.97976 11.2345 3.13773C11.2345 3.19835 11.7659 3.38023 12.4153 3.54194C13.7856 3.88319 14.2195 4.13132 13.9409 4.41398C13.8395 4.51679 12.929 4.82413 11.9176 5.09679L10.0789 5.59257L9.89167 6.32663C9.78855 6.73023 9.7298 7.06054 9.76105 7.06054C9.79214 7.06054 10.244 6.78491 10.7651 6.44819C12.6762 5.21304 16.0826 4.11038 16.6171 4.55398C16.8289 4.7296 16.8593 5.55726 16.8582 11.103L16.8571 17.4512L12.4828 22.0605C10.0768 24.5957 7.96964 26.7326 7.80011 26.8093C7.3973 26.9915 7.11902 26.7562 6.3687 25.5987C5.05214 23.5676 4.35948 21.0044 4.35948 18.1641C4.35948 14.9837 5.27683 12.2568 7.20995 9.69147L8.17167 8.41522L7.82839 7.0871C7.63949 6.35663 7.44355 5.71788 7.39292 5.66757C7.25136 5.52726 5.26823 7.67116 4.51886 8.7746C3.54448 10.2096 2.5262 12.4602 2.06245 14.2048C1.70964 15.5318 1.65573 16.0504 1.65214 18.1543C1.6462 21.6165 2.30933 24.113 3.98573 26.9413C5.0387 28.7177 7.85855 31.5376 9.63496 32.5905C12.4632 34.2669 14.9598 34.9301 18.422 34.9241C20.5381 34.9205 21.0412 34.8677 22.4064 34.5052C24.0293 34.0744 27.4368 32.5229 27.5801 32.1493C27.625 32.0326 27.5307 31.4927 27.3707 30.9496C27.0312 29.7965 26.6236 29.5535 25.885 30.0643C25.152 30.5713 22.9196 31.5549 21.9151 31.8135C20.6078 32.1499 20.0346 32.1335 19.8314 31.754C19.7245 31.5541 19.6818 29.8007 19.7087 26.7171C19.7481 22.2204 19.7646 21.9838 20.0454 21.9298C20.257 21.8891 21.1478 22.6793 23.1889 24.718C25.9439 27.4701 26.0534 27.5596 26.5357 27.4537C27.0543 27.3398 27.282 26.9808 27.4297 26.0449C27.4978 25.6121 27.2034 25.2613 23.5878 21.4677L19.672 17.3591V11.229C19.672 4.1282 19.6418 4.29398 20.9011 4.48288C22.0742 4.65882 24.0961 5.40226 25.4045 6.13898C26.9864 7.0296 29.3536 9.35007 30.284 10.9224C32.9734 15.4668 33.0018 20.8269 30.3609 25.3932C29.4403 26.9851 29.4754 27.2179 30.6876 27.5555C31.2032 27.6993 31.7356 27.8224 31.8707 27.8293C32.1781 27.8449 33.2817 25.9446 33.9248 24.2921C35.2753 20.8216 35.3714 16.5065 34.1778 12.9199C31.7725 5.6921 24.57 0.96304 16.9376 1.60038ZM12.9909 25.226C10.3406 27.8783 9.67199 28.631 9.67199 28.9616C9.67199 30.0762 15.7246 32.6516 16.6125 31.9147C16.8281 31.7358 16.8595 31.0855 16.8595 26.8071C16.8595 22.2327 16.8411 21.9043 16.5846 21.9043C16.4336 21.9043 14.8164 23.399 12.9909 25.226ZM28.1965 26.2012C28.0503 26.7168 27.8779 27.3144 27.8137 27.5293C27.7145 27.8607 27.515 27.9665 26.497 28.2274C25.837 28.3966 25.297 28.5824 25.297 28.6402C25.297 28.698 25.4904 28.7912 25.7267 28.8471C25.9629 28.903 26.5179 29.051 26.9597 29.176L27.7631 29.4032L28.0343 30.5365C28.1836 31.1599 28.3534 31.723 28.4117 31.788C28.4698 31.8529 28.647 31.3958 28.8054 30.7724C28.9637 30.1488 29.1517 29.5629 29.2231 29.4704C29.2945 29.3777 29.8818 29.1702 30.5281 29.0093C31.1743 28.8483 31.6504 28.6699 31.5861 28.6127C31.5215 28.5554 30.9915 28.3826 30.4081 28.2285C29.8247 28.0744 29.2973 27.8719 29.2362 27.7787C29.1751 27.6854 28.9761 27.0815 28.7937 26.4365L28.4625 25.2637L28.1965 26.2012ZM34.9628 28.3902C34.9153 28.4754 34.7861 28.8791 34.6756 29.2876C34.4778 30.0194 34.4612 30.0341 33.5192 30.3116L32.5636 30.593L33.5006 30.8971L34.4376 31.2012L34.7359 32.1387L35.0342 33.0762L35.2937 32.1387C35.5443 31.233 35.5767 31.1941 36.2454 30.9929C37.4337 30.6352 37.4409 30.6224 36.5954 30.3596C35.5961 30.0488 35.5864 30.0391 35.2903 29.0449C35.1578 28.5998 35.0104 28.3052 34.9628 28.3902Z" fill="white"/>
</svg>
