<svg width="13" height="13" viewBox="0 0 13 13" fill="none" xmlns="http://www.w3.org/2000/svg">
<path d="M12.7299 9.74874L8.13761 1.30698C7.39979 0.0648414 5.60119 0.0631911 4.86238 1.30698L0.270331 9.74874C-0.483923 11.018 0.429251 12.6253 1.90757 12.6253H11.0923C12.5693 12.6253 13.4841 11.0193 12.7299 9.74874ZM6.5 11.1018C6.08008 11.1018 5.73828 10.76 5.73828 10.3401C5.73828 9.9202 6.08008 9.57839 6.5 9.57839C6.91991 9.57839 7.26171 9.9202 7.26171 10.3401C7.26171 10.76 6.91991 11.1018 6.5 11.1018ZM7.26171 8.05496C7.26171 8.47487 6.91991 8.81668 6.5 8.81668C6.08008 8.81668 5.73828 8.47487 5.73828 8.05496V4.24637C5.73828 3.82646 6.08008 3.48465 6.5 3.48465C6.91991 3.48465 7.26171 3.82646 7.26171 4.24637V8.05496Z" fill="#D17D00"/>
</svg>
