<svg width="616" height="462" viewBox="0 0 616 462" fill="none" xmlns="http://www.w3.org/2000/svg">
<path d="M374.238 363.993V320.99H162.02L266.363 191.963C286.947 166.438 297.707 148.96 297.707 119.174C297.707 61.0421 258.414 24.6479 201.313 24.6479C144.699 24.6479 104.451 62.4622 104.451 119.648H152.179C152.179 81.8335 176.043 67.6691 201.313 67.6691C232.189 67.6691 249.979 88.4605 249.979 118.719C249.979 135.742 244.824 148.013 232.207 163.616L104 320.99V363.993H374.238Z" fill="#359138"/>
<path d="M476.094 266.972C476.094 227.137 453.815 202.759 430.618 188.704C451.959 175.577 470.524 152.146 470.524 116.99C470.524 61.2059 427.842 24.6479 374.004 24.6479C320.183 24.6479 277.952 61.2059 277.952 116.99C277.952 152.146 296.517 175.577 317.858 188.704C294.661 202.759 272.383 227.137 272.383 266.972C272.383 327.435 317.39 363.993 374.004 363.993C430.618 363.993 476.094 327.435 476.094 266.972ZM428.293 266.025C428.293 296.958 404.627 321.336 374.004 321.336C343.381 321.336 319.715 296.958 319.715 266.025C319.715 235.093 343.381 210.242 374.004 210.242C404.645 210.26 428.293 235.093 428.293 266.025ZM423.192 118.391C423.192 147.922 402.771 169.005 374.004 169.005C345.237 169.005 325.284 147.922 325.284 118.391C325.284 89.3345 345.237 67.305 374.004 67.305C402.771 67.305 423.192 89.3345 423.192 118.391Z" fill="#446AA0"/>
<path d="M513.517 70.8543V58.9656C513.517 48.1512 505.551 42.5073 496.268 42.5073C486.877 42.5073 479.019 48.1512 479.019 58.9656V70.8543C479.019 81.6687 486.877 87.3126 496.268 87.3126C505.533 87.3126 513.517 81.6687 513.517 70.8543ZM459.499 28.6888V16.8002C459.499 5.98569 451.532 0.341797 442.249 0.341797C432.859 0.341797 425 5.98569 425 16.8002V28.6888C425 39.5032 432.859 45.1472 442.249 45.1472C451.532 45.1472 459.499 39.5032 459.499 28.6888ZM495.421 1.05184H483.291L443.205 86.6026H455.335L495.421 1.05184ZM502.324 70.3809C502.324 74.9506 500.071 77.2264 496.25 77.2264C492.321 77.2264 490.176 74.9506 490.176 70.3809V59.439C490.176 54.8693 492.321 52.5935 496.25 52.5935C500.053 52.5935 502.324 54.8693 502.324 59.439V70.3809ZM448.323 28.1972C448.323 32.767 446.07 35.0427 442.249 35.0427C438.446 35.0427 436.175 32.767 436.175 28.1972V17.2553C436.175 12.6856 438.32 10.4098 442.249 10.4098C446.052 10.4098 448.323 12.6856 448.323 17.2553V28.1972Z" fill="#359138"/>
<path d="M110.148 405.28C110.148 408.668 107.684 411.496 103.568 411.496H99.7316V419H95.8396V399.064H103.568C107.684 399.064 110.148 401.892 110.148 405.28ZM106.256 405.28C106.256 403.656 105.136 402.536 103.372 402.536H99.7316V407.996H103.372C105.136 407.996 106.256 406.904 106.256 405.28ZM128.514 419H124.006L120.114 411.048H117.314V419H113.422V399.064H121.234C125.294 399.064 127.702 401.836 127.702 405.168C127.702 407.968 125.994 409.704 124.062 410.404L128.514 419ZM123.81 405.168C123.81 403.628 122.69 402.536 120.982 402.536H117.314V407.8H120.982C122.69 407.8 123.81 406.708 123.81 405.168ZM145.798 409.032C145.798 412.476 145.826 414.968 143.81 416.984C142.41 418.384 140.702 419.168 138.434 419.168C136.166 419.168 134.43 418.384 133.03 416.984C131.014 414.968 131.07 412.476 131.07 409.032C131.07 405.588 131.014 403.096 133.03 401.08C134.43 399.68 136.166 398.896 138.434 398.896C140.702 398.896 142.41 399.68 143.81 401.08C145.826 403.096 145.798 405.588 145.798 409.032ZM141.906 409.032C141.906 405.196 141.682 404.272 140.926 403.432C140.366 402.788 139.498 402.368 138.434 402.368C137.37 402.368 136.474 402.788 135.914 403.432C135.158 404.272 134.962 405.196 134.962 409.032C134.962 412.868 135.158 413.792 135.914 414.632C136.474 415.276 137.37 415.696 138.434 415.696C139.498 415.696 140.366 415.276 140.926 414.632C141.682 413.792 141.906 412.868 141.906 409.032ZM162.894 402.536H153.654V407.436H161.522V410.908H153.654V419H149.762V399.064H162.894V402.536ZM170.169 419H166.277V399.064H170.169V419ZM187.632 402.536H182.424V419H178.532V402.536H173.324V399.064H187.632V402.536ZM203.684 413.12C203.684 416.984 200.464 419.168 196.292 419.168C193.268 419.168 190.972 418.524 189.012 416.536L191.532 414.016C192.792 415.276 194.5 415.696 196.348 415.696C198.644 415.696 199.876 414.828 199.876 413.232C199.876 412.532 199.68 411.944 199.26 411.552C198.868 411.188 198.42 410.992 197.496 410.852L195.088 410.516C193.38 410.264 192.12 409.732 191.224 408.864C190.272 407.912 189.796 406.624 189.796 404.944C189.796 401.388 192.428 398.896 196.74 398.896C199.484 398.896 201.472 399.568 203.18 401.22L200.716 403.656C199.456 402.452 197.944 402.284 196.628 402.284C194.556 402.284 193.548 403.432 193.548 404.804C193.548 405.308 193.716 405.84 194.136 406.232C194.528 406.596 195.172 406.904 195.984 407.016L198.336 407.352C200.156 407.604 201.304 408.108 202.144 408.892C203.208 409.9 203.684 411.356 203.684 413.12ZM226.679 402.536H221.471V419H217.579V402.536H212.371V399.064H226.679V402.536ZM243.36 409.032C243.36 412.476 243.388 414.968 241.372 416.984C239.972 418.384 238.264 419.168 235.996 419.168C233.728 419.168 231.992 418.384 230.592 416.984C228.576 414.968 228.632 412.476 228.632 409.032C228.632 405.588 228.576 403.096 230.592 401.08C231.992 399.68 233.728 398.896 235.996 398.896C238.264 398.896 239.972 399.68 241.372 401.08C243.388 403.096 243.36 405.588 243.36 409.032ZM239.468 409.032C239.468 405.196 239.244 404.272 238.488 403.432C237.928 402.788 237.06 402.368 235.996 402.368C234.932 402.368 234.036 402.788 233.476 403.432C232.72 404.272 232.524 405.196 232.524 409.032C232.524 412.868 232.72 413.792 233.476 414.632C234.036 415.276 234.932 415.696 235.996 415.696C237.06 415.696 237.928 415.276 238.488 414.632C239.244 413.792 239.468 412.868 239.468 409.032ZM268.28 413.26C268.28 416.984 265.732 419 262.176 419H253.832V399.064H261.84C265.732 399.064 268 401.248 268 404.664C268 406.876 266.544 408.304 265.536 408.78C266.74 409.34 268.28 410.6 268.28 413.26ZM264.388 413.064C264.388 411.72 263.548 410.628 261.784 410.628H257.724V415.528H261.784C263.548 415.528 264.388 414.408 264.388 413.064ZM264.108 404.832C264.108 403.46 263.184 402.536 261.532 402.536H257.724V407.128H261.532C263.184 407.128 264.108 406.204 264.108 404.832ZM285.394 419H272.262V399.064H285.394V402.536H276.154V407.212H284.022V410.684H276.154V415.528H285.394V419ZM310.198 408.948C310.198 411.944 310.422 414.856 308.182 417.096C306.866 418.412 304.99 419 302.918 419H295.722V399.064H302.918C304.99 399.064 306.866 399.652 308.182 400.968C310.422 403.208 310.198 405.952 310.198 408.948ZM306.306 408.948C306.306 405.924 306.194 404.664 305.466 403.768C304.794 402.956 303.898 402.536 302.554 402.536H299.614V415.528H302.554C303.898 415.528 304.794 415.108 305.466 414.296C306.194 413.4 306.306 411.972 306.306 408.948ZM328.235 409.032C328.235 412.476 328.263 414.968 326.247 416.984C324.847 418.384 323.139 419.168 320.871 419.168C318.603 419.168 316.867 418.384 315.467 416.984C313.451 414.968 313.507 412.476 313.507 409.032C313.507 405.588 313.451 403.096 315.467 401.08C316.867 399.68 318.603 398.896 320.871 398.896C323.139 398.896 324.847 399.68 326.247 401.08C328.263 403.096 328.235 405.588 328.235 409.032ZM324.343 409.032C324.343 405.196 324.119 404.272 323.363 403.432C322.803 402.788 321.935 402.368 320.871 402.368C319.807 402.368 318.911 402.788 318.351 403.432C317.595 404.272 317.399 405.196 317.399 409.032C317.399 412.868 317.595 413.792 318.351 414.632C318.911 415.276 319.807 415.696 320.871 415.696C321.935 415.696 322.803 415.276 323.363 414.632C324.119 413.792 324.343 412.868 324.343 409.032ZM347.459 419H343.987L336.091 406.764V419H332.199V399.064H335.671L343.567 411.272V399.064H347.459V419ZM367.505 419H363.445L362.269 415.472H355.185L353.981 419H349.921L357.173 399.064H360.225L367.505 419ZM361.233 412.196L358.797 404.944L356.277 412.196H361.233ZM381.117 402.536H375.909V419H372.017V402.536H366.809V399.064H381.117V402.536ZM397.421 419H384.289V399.064H397.421V402.536H388.181V407.212H396.049V410.684H388.181V415.528H397.421V419ZM415.718 408.948C415.718 411.944 415.942 414.856 413.702 417.096C412.386 418.412 410.51 419 408.438 419H401.242V399.064H408.438C410.51 399.064 412.386 399.652 413.702 400.968C415.942 403.208 415.718 405.952 415.718 408.948ZM411.826 408.948C411.826 405.924 411.714 404.664 410.986 403.768C410.314 402.956 409.418 402.536 408.074 402.536H405.134V415.528H408.074C409.418 415.528 410.314 415.108 410.986 414.296C411.714 413.4 411.826 411.972 411.826 408.948ZM439.031 402.536H433.823V419H429.931V402.536H424.723V399.064H439.031V402.536ZM455.712 409.032C455.712 412.476 455.74 414.968 453.724 416.984C452.324 418.384 450.616 419.168 448.348 419.168C446.08 419.168 444.344 418.384 442.944 416.984C440.928 414.968 440.984 412.476 440.984 409.032C440.984 405.588 440.928 403.096 442.944 401.08C444.344 399.68 446.08 398.896 448.348 398.896C450.616 398.896 452.324 399.68 453.724 401.08C455.74 403.096 455.712 405.588 455.712 409.032ZM451.82 409.032C451.82 405.196 451.596 404.272 450.84 403.432C450.28 402.788 449.412 402.368 448.348 402.368C447.284 402.368 446.388 402.788 445.828 403.432C445.072 404.272 444.876 405.196 444.876 409.032C444.876 412.868 445.072 413.792 445.828 414.632C446.388 415.276 447.284 415.696 448.348 415.696C449.412 415.696 450.28 415.276 450.84 414.632C451.596 413.792 451.82 412.868 451.82 409.032ZM479.007 402.536H473.799V419H469.907V402.536H464.699V399.064H479.007V402.536ZM496.711 419H492.819V410.656H486.071V419H482.179V399.064H486.071V407.212H492.819V399.064H496.711V419ZM514.479 419H501.347V399.064H514.479V402.536H505.239V407.212H513.107V410.684H505.239V415.528H514.479V419ZM8.63592 455H4.74392V435.064H8.63592V455ZM21.2272 448.7H12.6032V445.312H21.2272V448.7ZM40.597 455H36.537L35.361 451.472H28.277L27.073 455H23.013L30.265 435.064H33.317L40.597 455ZM34.325 448.196L31.889 440.944L29.369 448.196H34.325ZM61.1125 455H57.2205V443.38L53.4125 450.94H50.7805L46.9445 443.38V455H43.0525V435.064H46.8885L52.0965 445.844L57.2765 435.064H61.1125V455ZM73.6998 448.7H65.0758V445.312H73.6998V448.7ZM91.9777 441.28C91.9777 444.668 89.5137 447.496 85.3977 447.496H81.5617V455H77.6697V435.064H85.3977C89.5137 435.064 91.9777 437.892 91.9777 441.28ZM88.0857 441.28C88.0857 439.656 86.9657 438.536 85.2017 438.536H81.5617V443.996H85.2017C86.9657 443.996 88.0857 442.904 88.0857 441.28ZM108.384 455H95.2517V435.064H108.384V438.536H99.1437V443.212H107.012V446.684H99.1437V451.528H108.384V455ZM127.605 455H123.545L122.369 451.472H115.285L114.081 455H110.021L117.273 435.064H120.325L127.605 455ZM121.333 448.196L118.897 440.944L116.377 448.196H121.333ZM143.787 448.868C143.115 452.928 140.259 455.168 136.451 455.168C134.323 455.168 132.531 454.44 131.075 452.984C130.207 452.116 129.675 451.108 129.451 449.988C129.227 448.868 129.115 447.216 129.115 445.032C129.115 442.848 129.227 441.196 129.451 440.076C129.675 438.928 130.207 437.948 131.075 437.08C132.531 435.624 134.323 434.896 136.451 434.896C140.287 434.896 143.115 437.136 143.787 441.196H139.839C139.419 439.488 138.355 438.368 136.479 438.368C135.415 438.368 134.575 438.704 133.987 439.404C133.175 440.272 133.007 441.168 133.007 445.032C133.007 448.896 133.175 449.792 133.987 450.66C134.575 451.36 135.415 451.696 136.479 451.696C138.355 451.696 139.419 450.576 139.839 448.868H143.787ZM160.282 455H147.15V435.064H160.282V438.536H151.042V443.212H158.91V446.684H151.042V451.528H160.282V455ZM180.231 455H175.695L170.571 445.928L167.995 449.008V455H164.103V435.064H167.995V443.744L175.023 435.064H179.755L173.147 442.988L180.231 455ZM195.856 455H182.724V435.064H195.856V438.536H186.616V443.212H194.484V446.684H186.616V451.528H195.856V455ZM212.81 455H199.678V435.064H212.81V438.536H203.57V443.212H211.438V446.684H203.57V451.528H212.81V455ZM230.939 441.28C230.939 444.668 228.475 447.496 224.359 447.496H220.523V455H216.631V435.064H224.359C228.475 435.064 230.939 437.892 230.939 441.28ZM227.047 441.28C227.047 439.656 225.927 438.536 224.163 438.536H220.523V443.996H224.163C225.927 443.996 227.047 442.904 227.047 441.28ZM247.345 455H234.213V435.064H247.345V438.536H238.105V443.212H245.973V446.684H238.105V451.528H247.345V455ZM266.258 455H261.75L257.858 447.048H255.058V455H251.166V435.064H258.978C263.038 435.064 265.446 437.836 265.446 441.168C265.446 443.968 263.738 445.704 261.806 446.404L266.258 455ZM261.554 441.168C261.554 439.628 260.434 438.536 258.726 438.536H255.058V443.8H258.726C260.434 443.8 261.554 442.708 261.554 441.168ZM294.054 455H290.162V443.38L286.354 450.94H283.722L279.886 443.38V455H275.994V435.064H279.83L285.038 445.844L290.218 435.064H294.054V455ZM312.745 445.032C312.745 448.476 312.773 450.968 310.757 452.984C309.357 454.384 307.649 455.168 305.381 455.168C303.113 455.168 301.377 454.384 299.977 452.984C297.961 450.968 298.017 448.476 298.017 445.032C298.017 441.588 297.961 439.096 299.977 437.08C301.377 435.68 303.113 434.896 305.381 434.896C307.649 434.896 309.357 435.68 310.757 437.08C312.773 439.096 312.745 441.588 312.745 445.032ZM308.853 445.032C308.853 441.196 308.629 440.272 307.873 439.432C307.313 438.788 306.445 438.368 305.381 438.368C304.317 438.368 303.421 438.788 302.861 439.432C302.105 440.272 301.909 441.196 301.909 445.032C301.909 448.868 302.105 449.792 302.861 450.632C303.421 451.276 304.317 451.696 305.381 451.696C306.445 451.696 307.313 451.276 307.873 450.632C308.629 449.792 308.853 448.868 308.853 445.032ZM330.295 435.064L323.687 455H320.775L314.195 435.064H318.227L322.231 448.056L326.235 435.064H330.295ZM345.837 455H332.705V435.064H345.837V438.536H336.597V443.212H344.465V446.684H336.597V451.528H345.837V455ZM367.718 455H363.826V443.38L360.018 450.94H357.386L353.55 443.38V455H349.658V435.064H353.494L358.702 445.844L363.882 435.064H367.718V455ZM385.485 455H372.353V435.064H385.485V438.536H376.245V443.212H384.113V446.684H376.245V451.528H385.485V455ZM404.566 455H401.094L393.198 442.764V455H389.306V435.064H392.778L400.674 447.272V435.064H404.566V455ZM422.037 438.536H416.829V455H412.937V438.536H407.729V435.064H422.037V438.536ZM444.849 438.536H435.609V443.436H443.477V446.908H435.609V455H431.717V435.064H444.849V438.536ZM461.741 445.032C461.741 448.476 461.769 450.968 459.753 452.984C458.353 454.384 456.645 455.168 454.377 455.168C452.109 455.168 450.373 454.384 448.973 452.984C446.957 450.968 447.013 448.476 447.013 445.032C447.013 441.588 446.957 439.096 448.973 437.08C450.373 435.68 452.109 434.896 454.377 434.896C456.645 434.896 458.353 435.68 459.753 437.08C461.769 439.096 461.741 441.588 461.741 445.032ZM457.849 445.032C457.849 441.196 457.625 440.272 456.869 439.432C456.309 438.788 455.441 438.368 454.377 438.368C453.313 438.368 452.417 438.788 451.857 439.432C451.101 440.272 450.905 441.196 450.905 445.032C450.905 448.868 451.101 449.792 451.857 450.632C452.417 451.276 453.313 451.696 454.377 451.696C455.441 451.696 456.309 451.276 456.869 450.632C457.625 449.792 457.849 448.868 457.849 445.032ZM480.797 455H476.289L472.397 447.048H469.597V455H465.705V435.064H473.517C477.577 435.064 479.985 437.836 479.985 441.168C479.985 443.968 478.277 445.704 476.345 446.404L480.797 455ZM476.093 441.168C476.093 439.628 474.973 438.536 473.265 438.536H469.597V443.8H473.265C474.973 443.8 476.093 442.708 476.093 441.168ZM502.545 452.172H500.725V455H497.225V452.172H489.077V448.728L495.909 435.064H499.885L493.053 448.728H497.225V445.004H500.725V448.728H502.545V452.172ZM526.244 448.868C525.572 452.928 522.716 455.168 518.908 455.168C516.78 455.168 514.988 454.44 513.532 452.984C512.664 452.116 512.132 451.108 511.908 449.988C511.684 448.868 511.572 447.216 511.572 445.032C511.572 442.848 511.684 441.196 511.908 440.076C512.132 438.928 512.664 437.948 513.532 437.08C514.988 435.624 516.78 434.896 518.908 434.896C522.744 434.896 525.572 437.136 526.244 441.196H522.296C521.876 439.488 520.812 438.368 518.936 438.368C517.872 438.368 517.032 438.704 516.444 439.404C515.632 440.272 515.464 441.168 515.464 445.032C515.464 448.896 515.632 449.792 516.444 450.66C517.032 451.36 517.872 451.696 518.936 451.696C520.812 451.696 521.876 450.576 522.296 448.868H526.244ZM544.706 455H540.646L539.47 451.472H532.386L531.182 455H527.122L534.374 435.064H537.426L544.706 455ZM538.434 448.196L535.998 440.944L533.478 448.196H538.434ZM561.526 448.168C561.526 452.396 558.278 455.168 554.19 455.168C550.102 455.168 546.854 452.396 546.854 448.168V435.064H550.746V448.028C550.746 450.324 552.09 451.696 554.19 451.696C556.29 451.696 557.662 450.324 557.662 448.028V435.064H561.526V448.168ZM578.745 449.12C578.745 452.984 575.525 455.168 571.353 455.168C568.329 455.168 566.033 454.524 564.073 452.536L566.593 450.016C567.853 451.276 569.561 451.696 571.409 451.696C573.705 451.696 574.937 450.828 574.937 449.232C574.937 448.532 574.741 447.944 574.321 447.552C573.929 447.188 573.481 446.992 572.557 446.852L570.149 446.516C568.441 446.264 567.181 445.732 566.285 444.864C565.333 443.912 564.857 442.624 564.857 440.944C564.857 437.388 567.489 434.896 571.801 434.896C574.545 434.896 576.533 435.568 578.241 437.22L575.777 439.656C574.517 438.452 573.005 438.284 571.689 438.284C569.617 438.284 568.609 439.432 568.609 440.804C568.609 441.308 568.777 441.84 569.197 442.232C569.589 442.596 570.233 442.904 571.045 443.016L573.397 443.352C575.217 443.604 576.365 444.108 577.205 444.892C578.269 445.9 578.745 447.356 578.745 449.12ZM595.54 455H582.408V435.064H595.54V438.536H586.3V443.212H594.168V446.684H586.3V451.528H595.54V455ZM612.241 449.12C612.241 452.984 609.021 455.168 604.849 455.168C601.825 455.168 599.529 454.524 597.569 452.536L600.089 450.016C601.349 451.276 603.057 451.696 604.905 451.696C607.201 451.696 608.433 450.828 608.433 449.232C608.433 448.532 608.237 447.944 607.817 447.552C607.425 447.188 606.977 446.992 606.053 446.852L603.645 446.516C601.937 446.264 600.677 445.732 599.781 444.864C598.829 443.912 598.353 442.624 598.353 440.944C598.353 437.388 600.985 434.896 605.297 434.896C608.041 434.896 610.029 435.568 611.737 437.22L609.273 439.656C608.013 438.452 606.501 438.284 605.185 438.284C603.113 438.284 602.105 439.432 602.105 440.804C602.105 441.308 602.273 441.84 602.693 442.232C603.085 442.596 603.729 442.904 604.541 443.016L606.893 443.352C608.713 443.604 609.861 444.108 610.701 444.892C611.765 445.9 612.241 447.356 612.241 449.12Z" fill="#005A93"/>
</svg>
